<svg width="146" height="134" viewBox="0 0 146 134" fill="none" xmlns="http://www.w3.org/2000/svg">
<g clip-path="url(#clip0_34_14695)">
<g filter="url(#filter0_d_34_14695)">
<g filter="url(#filter1_b_34_14695)">
<path d="M76.9828 66H30.3342C28.8165 66 27.5977 67.2345 27.5977 68.7458V86.0279C27.5977 87.5508 28.828 88.7737 30.3342 88.7737H32.9014C34.1072 88.7737 35.0356 89.8327 34.8986 91.0308C34.7191 92.6004 34.5948 94 34.7266 94C34.9165 94 36.7141 91.5498 38.1174 89.6058C38.4943 89.0837 39.0983 88.7737 39.7422 88.7737H76.9828C78.5006 88.7737 79.7194 87.5392 79.7194 86.0279V68.7458C79.7194 67.2345 78.4891 66 76.9828 66Z" fill="white" fill-opacity="0.09"/>
</g>
<path d="M42.9522 82.4562C45.633 79.7664 45.633 75.4055 42.9523 72.7157C40.2715 70.0259 35.9252 70.0259 33.2445 72.7157C30.5638 75.4055 30.5638 79.7664 33.2445 82.4562C35.9252 85.1459 40.2715 85.1459 42.9522 82.4562Z" fill="#E0E0E0" fill-opacity="0.5"/>
<path d="M39.1724 81.375H37.1602V83.394H39.1724V81.375Z" fill="#FFC0BB"/>
<path d="M39.188 82.5864V81.375H37.1758V82.4018C37.6012 82.6325 38.2451 82.771 39.188 82.5864Z" fill="#FDAAA4"/>
<path d="M42.3602 77.7583C42.1532 77.6544 41.9002 77.6775 41.6818 77.7813C41.7623 75.7854 40.1295 74.1125 38.0943 74.1818C36.0476 74.1125 34.4263 75.7854 34.5068 77.7813C34.2884 77.666 34.0469 77.6544 33.8284 77.7583C33.426 77.9544 33.2995 78.5312 33.5525 79.0389C33.8054 79.5465 34.3344 79.7888 34.7368 79.5927C34.7943 79.5696 34.8403 79.535 34.8863 79.4888C35.1162 81.1386 36.496 82.3731 38.1058 82.35C39.7156 82.3731 41.0839 81.1386 41.3253 79.4888C41.3713 79.535 41.4173 79.5696 41.4748 79.5927C41.8772 79.7888 42.4062 79.5465 42.6591 79.0389C42.8891 78.5312 42.7741 77.9544 42.3602 77.7583Z" fill="#FFC0BB"/>
<path d="M35.6456 73.3934C35.6456 73.3934 36.6575 72.5281 38.9571 72.6781C41.2568 72.8165 41.6937 74.0164 41.8317 75.747L41.6937 77.789C41.6937 77.789 41.0958 77.1776 40.3139 75.4585C40.3139 75.4585 39.0261 76.9122 38.4627 76.7392C37.8993 76.5661 38.6697 75.5278 38.6697 75.5278C38.6697 75.5278 36.0481 77.789 34.4958 77.789C34.4958 77.789 33.6794 75.1355 34.8292 74.1664C34.8292 74.1664 33.9669 74.2125 33.9209 74.0395C33.8749 73.8664 34.3348 73.6126 35.1627 73.7049C35.1627 73.7049 34.5648 72.5397 34.8982 72.4243C35.2432 72.2974 35.6456 73.3934 35.6456 73.3934Z" fill="#051208"/>
<path d="M39.4138 80.1016C39.3218 80.5054 38.8734 80.8169 38.31 80.8284C37.7466 80.8399 37.2751 80.563 37.1602 80.1708L39.4138 80.1016Z" fill="white" fill-opacity="0.5"/>
<path d="M74.4066 73.477H47.6041C47.4546 73.477 47.3281 73.3501 47.3281 73.2001V72.5425C47.3281 72.3925 47.4546 72.2656 47.6041 72.2656H74.4066C74.5561 72.2656 74.6826 72.3925 74.6826 72.5425V73.2001C74.6711 73.3616 74.5561 73.477 74.4066 73.477Z" fill="#E0E0E0" fill-opacity="0.5"/>
<path d="M53.5179 76.6333H47.5963C47.4468 76.6333 47.3203 76.5064 47.3203 76.3564V75.6988C47.3203 75.5488 47.4468 75.4219 47.5963 75.4219H53.5179C53.6674 75.4219 53.7939 75.5488 53.7939 75.6988V76.3564C53.7939 76.5064 53.6674 76.6333 53.5179 76.6333Z" fill="#E0E0E0" fill-opacity="0.5"/>
<path d="M74.4091 76.6333H56.4947C56.3452 76.6333 56.2188 76.5064 56.2188 76.3564V75.6988C56.2188 75.5488 56.3452 75.4219 56.4947 75.4219H74.4091C74.5585 75.4219 74.685 75.5488 74.685 75.6988V76.3564C74.6735 76.5064 74.5585 76.6333 74.4091 76.6333Z" fill="#E0E0E0" fill-opacity="0.5"/>
<path d="M61.1836 79.7973H47.6041C47.4546 79.7973 47.3281 79.6704 47.3281 79.5204V78.8628C47.3281 78.7128 47.4546 78.5859 47.6041 78.5859H61.1836C61.3331 78.5859 61.4595 78.7128 61.4595 78.8628V79.5204C61.4595 79.6704 61.3331 79.7973 61.1836 79.7973Z" fill="#E0E0E0" fill-opacity="0.5"/>
<path d="M74.4123 79.7973H63.7994C63.6499 79.7973 63.5234 79.6704 63.5234 79.5204V78.8628C63.5234 78.7128 63.6499 78.5859 63.7994 78.5859H74.4123C74.5618 78.5859 74.6883 78.7128 74.6883 78.8628V79.5204C74.6768 79.6704 74.5618 79.7973 74.4123 79.7973Z" fill="#E0E0E0" fill-opacity="0.5"/>
<path d="M74.4066 82.9536H47.6041C47.4546 82.9536 47.3281 82.8267 47.3281 82.6767V82.0191C47.3281 81.8691 47.4546 81.7422 47.6041 81.7422H74.4066C74.5561 81.7422 74.6826 81.8691 74.6826 82.0191V82.6767C74.6711 82.8267 74.5561 82.9536 74.4066 82.9536Z" fill="#E0E0E0" fill-opacity="0.5"/>
</g>
<path d="M94.789 48.3349L96.0714 56.3946L98.775 45.6483C98.775 45.6483 94.9796 43.8051 94.815 44.4746C94.6503 45.144 94.789 48.3349 94.789 48.3349Z" fill="#07085B"/>
<path d="M116.313 65.6797L117.483 79.6081L105.23 79.0256L106.643 66.6882L116.313 65.6797Z" fill="#FFC0BB"/>
<path d="M105.969 72.557L106.645 66.6882L116.315 65.6797L116.722 70.5051C114.799 72.4266 111.341 74.4176 105.969 72.557Z" fill="#F99893"/>
<path d="M98.4555 56.2871C99.1921 57.8173 98.8021 59.5388 97.5803 60.13C96.3585 60.7212 94.7728 59.9648 94.0363 58.4346C93.2997 56.9044 93.6897 55.1829 94.9115 54.5917C96.1333 54.0005 97.719 54.7569 98.4555 56.2871Z" fill="#F99893"/>
<path d="M98.3693 63.358C97.4941 61.3844 96.9829 59.2629 96.6796 57.411C96.619 57.0111 96.5323 56.6198 96.437 56.2286C96.0557 54.6462 95.9517 52.9421 96.2204 51.1684C97.0696 45.4649 101.645 40.9177 107.338 40.1352C115.007 39.0745 121.757 44.7693 122.233 52.3161C123.022 51.8118 123.932 51.6466 124.764 51.9596C126.358 52.5595 127.051 54.6636 126.306 56.6633C125.561 58.663 123.672 59.802 122.077 59.2021C121.852 59.1151 121.653 59.0021 121.471 58.8717C121.228 65.3316 116.298 70.6179 109.998 70.9135C106.922 71.0613 104.054 69.9832 101.835 68.0965C100.406 67.0358 99.0625 64.9926 98.3693 63.358Z" fill="#FFC0BB"/>
<path d="M106.231 53.1953C106.205 53.9517 106.196 54.6821 106.162 55.4037C106.118 56.0732 106.04 57.0296 105.633 57.5338C105.572 57.6208 105.243 57.9686 105.243 58.5076C105.226 59.0032 105.486 59.4553 105.815 59.7248C106.482 60.29 107.349 60.3421 108.068 60.1682C107.331 60.0378 106.638 59.7857 106.222 59.3075C106.032 59.0727 105.91 58.8032 105.954 58.5511C105.988 58.2642 106.144 58.1164 106.205 58.0294C106.404 57.7599 106.655 57.4817 106.759 56.5601C106.794 56.1688 106.794 55.7776 106.751 55.4037C106.673 54.6386 106.508 53.8996 106.231 53.1953Z" fill="#F99893"/>
<path d="M110.571 54.193C110.597 54.8277 111.135 55.3146 111.767 55.2885C112.4 55.2624 112.885 54.7234 112.859 54.0887C112.833 53.454 112.296 52.9671 111.663 52.9932C111.031 53.0193 110.545 53.5583 110.571 54.193Z" fill="#2C2C34"/>
<path d="M100.798 55.2946C100.824 55.9293 101.361 56.4162 101.994 56.3901C102.626 56.364 103.111 55.8249 103.085 55.1902C103.059 54.5556 102.522 54.0687 101.89 54.0948C101.257 54.1208 100.772 54.6599 100.798 55.2946Z" fill="#2C2C34"/>
<path d="M112.485 61.9531C111.324 62.9704 109.808 63.7616 108.309 63.9442C106.679 64.1528 105.25 63.6485 103.863 62.7965C105.154 63.8833 106.645 64.431 108.343 64.2398C109.998 64.0311 111.549 63.0747 112.485 61.9531Z" fill="#F99893"/>
<path d="M109.133 51.6073C110.745 51.1117 111.654 51.077 112.391 51.1726C113.994 51.39 114.904 52.1029 115.458 52.3464C114.783 51.0944 113.743 50.4336 112.486 50.2771C111.134 50.1119 109.809 50.7205 109.133 51.6073Z" fill="#2C2C34"/>
<path d="M104.097 52.1653C103.274 51.4349 101.853 51.0872 100.544 51.5132C99.3484 51.9131 98.4558 52.7652 98.0312 54.1215C98.5338 53.7651 99.279 52.8956 100.813 52.3739C101.523 52.1392 102.416 51.9914 104.097 52.1653Z" fill="#2C2C34"/>
<path d="M103.86 74.0577C103.86 74.0577 92.327 75.5271 89.3982 77.9181C86.4694 80.309 72.3711 115.382 72.3711 115.382L84.0864 129.163L108.982 129.346C108.982 129.346 127.655 139.449 139.37 129.893C151.086 120.347 145.046 87.0994 138.27 79.9352C131.494 72.771 119.414 72.9536 119.414 72.9536C119.414 72.9536 108.436 80.6742 103.86 74.0577Z" fill="#29BB80"/>
<path d="M126.189 91.5C125.774 93.4128 125.522 95.3516 125.349 97.2992C125.254 98.273 125.21 99.2467 125.15 100.229C125.124 101.212 125.098 102.185 125.115 103.168C125.15 105.124 125.262 107.089 125.592 109.028C125.921 110.958 126.397 112.897 127.29 114.645C126.692 112.784 126.389 110.871 126.172 108.95C125.956 107.028 125.886 105.089 125.86 103.159C125.817 101.22 125.869 99.2815 125.93 97.3426C125.999 95.3951 126.085 93.4562 126.189 91.5Z" fill="#1AA86F"/>
<path d="M91.6887 90.2188C91.1601 93.0618 90.6055 95.8962 90.0336 98.7306C89.4531 101.556 88.8552 104.382 88.1706 107.182C87.4947 109.981 86.7495 112.763 85.8397 115.493C85.3891 116.858 84.8778 118.206 84.2799 119.51C83.6907 120.823 82.9975 122.084 82.0703 123.197C83.1275 122.206 83.9073 120.945 84.6092 119.675C85.2938 118.389 85.883 117.058 86.3856 115.693C86.9055 114.337 87.3474 112.955 87.772 111.564C88.1793 110.172 88.5519 108.773 88.8985 107.364C89.2278 105.956 89.5484 104.538 89.8343 103.121C90.1116 101.695 90.3802 100.278 90.6055 98.8436C91.0821 95.9832 91.4547 93.1053 91.6887 90.2188Z" fill="#1AA86F"/>
<path d="M85.8914 121.219C85.9607 120.636 90.3626 119.984 91.983 119.906C93.2048 119.845 101.333 119.567 104.097 119.445L103.898 120.158L103.941 123.306L104.392 125.392C101.965 125.549 96.047 125.775 94.8079 126.027C93.1615 126.357 90.302 127.601 90.302 127.601C90.302 127.601 89.1149 127.331 90.6226 126.679C91.8357 126.157 92.6849 125.34 93.0489 124.94C93.2568 124.705 93.0315 124.297 92.8842 124.332C88.7683 125.41 88.3437 125.592 88.3437 125.592C88.3437 125.592 83.5085 125.566 88.3177 124.471C91.2032 123.819 92.2343 123.436 92.4856 123.114C92.5983 122.975 92.399 122.506 92.2257 122.497C89.7301 122.341 85.2502 123.227 86.472 122.645C87.4685 122.167 90.6226 121.654 91.8531 121.454C91.931 121.445 92.0524 120.984 91.7144 120.958C89.3315 120.741 85.8307 121.758 85.8914 121.219Z" fill="#FFC0BB"/>
<path d="M125.984 114.904C124.979 115.147 123.947 115.321 122.934 115.539C120.889 115.913 118.844 116.234 116.79 116.53C114.736 116.799 112.674 117.051 110.612 117.251C108.558 117.46 106.461 117.634 104.433 117.747L104.156 117.764L104.095 117.999C103.922 118.695 103.81 119.364 103.723 120.06C103.636 120.747 103.602 121.442 103.602 122.138C103.61 122.833 103.671 123.529 103.784 124.224C103.914 124.911 104.113 125.589 104.39 126.233L104.416 126.285L104.459 126.311L106.721 127.833C107.475 128.337 108.229 128.841 108.991 129.337C108.281 128.763 107.57 128.206 106.851 127.65L104.745 126.024C104.529 125.416 104.373 124.781 104.286 124.137C104.208 123.477 104.173 122.807 104.191 122.138C104.217 121.468 104.277 120.799 104.373 120.138C104.459 119.564 104.572 118.982 104.711 118.425C105.69 118.39 106.626 118.33 107.579 118.26C108.619 118.182 109.659 118.104 110.698 117.99C112.769 117.773 114.84 117.512 116.903 117.182C118.965 116.852 121.01 116.443 123.038 115.965C124.051 115.704 125.057 115.452 126.053 115.139C127.058 114.852 128.037 114.504 129.017 114.156C127.994 114.408 126.998 114.695 125.984 114.904Z" fill="#1AA86F"/>
<path d="M37.6223 97.8438H76.8584C78.0628 97.8438 79.146 98.5741 79.6052 99.687L91.6152 129.109H113.304C113.911 129.109 114.405 129.604 114.405 130.213C114.405 130.822 113.911 131.317 113.304 131.317H50.6808C49.5283 131.317 48.4712 130.639 48.0032 129.578L35.378 101.33C34.6415 99.6957 35.8286 97.8438 37.6223 97.8438Z" fill="#001225"/>
<path d="M94.539 40.7063C94.539 40.7063 90.6916 40.828 94.7296 37.5676C98.7676 34.3072 109.599 30.4817 116.54 34.1594C116.54 34.1594 117.926 31.1946 119.937 31.9075C121.947 32.6118 118.628 34.655 118.628 34.655C118.628 34.655 121.193 34.568 121.973 35.8374C122.554 36.7677 120.985 36.8112 120.127 36.7677C121.583 37.0199 127.181 40.5585 124.373 51.8786C123.377 51.6613 117.692 43.3842 117.692 43.3842C117.692 43.3842 104.686 50.6353 105.977 44.8709C105.977 44.8709 92.5027 53.3045 94.4177 46.3403C94.409 46.3229 89.2012 46.7055 94.539 40.7063Z" fill="#2C2C34"/>
<path d="M124.382 51.9366C124.382 51.9366 123.308 51.554 122.147 52.4757C120.986 53.3973 121.116 56.6403 121.116 56.6403C121.116 56.6403 115.587 60.2137 116.168 45.0854C116.792 28.9833 120.778 46.3809 120.778 46.3809L124.382 51.9366Z" fill="#2C2C34"/>
<path d="M57.3045 33.1562H8.89105C7.39597 33.1562 6.17188 34.3751 6.17188 35.8846V53.8579C6.17188 55.3581 7.38663 56.5863 8.89105 56.5863H43.0723C44.4553 58.5271 46.9595 61.9961 47.1838 61.9961C47.3894 61.9961 46.9876 58.724 46.7072 56.5863H57.3045C58.7995 56.5863 60.0236 55.3674 60.0236 53.8579V35.8846C60.0236 34.3751 58.8089 33.1562 57.3045 33.1562Z" fill="#29BB80"/>
<path d="M18.1229 51.1651C21.5935 49.7077 23.2311 45.7071 21.7805 42.2296C20.3299 38.7521 16.3405 37.1145 12.87 38.572C9.3994 40.0294 7.76186 44.03 9.21243 47.5075C10.663 50.985 14.6524 52.6226 18.1229 51.1651Z" fill="#051208" fill-opacity="0.2"/>
<path d="M11.9444 45.0503C11.9444 45.0503 11.2716 42.2751 12.8788 41.2344C14.486 40.1937 16.2054 39.9593 17.3734 40.5593C18.9993 41.3938 19.6721 43.6346 19.1488 44.8815L14.8411 43.7752L11.9444 45.0503Z" fill="#2C2C34"/>
<path d="M16.57 48.3125H14.5703V50.3189H16.57V48.3125Z" fill="#FFC0BB"/>
<path d="M16.57 49.5126V48.3125H14.5703V49.3345C15.0001 49.5595 15.6356 49.6907 16.57 49.5126Z" fill="#FDAAA4"/>
<path d="M19.7226 44.7246C19.517 44.6215 19.274 44.6402 19.0498 44.7527C19.1245 42.7745 17.5173 41.1149 15.4896 41.1899C13.4619 41.1243 11.8547 42.7838 11.9295 44.7527C11.7145 44.6402 11.4716 44.6215 11.2567 44.7246C10.8549 44.9215 10.7334 45.4934 10.9763 45.9903C11.2193 46.4873 11.7519 46.7404 12.1444 46.5435C12.2004 46.5154 12.2472 46.4779 12.2939 46.4404C12.5275 48.0718 13.8824 49.3 15.4803 49.2719C17.0781 49.2906 18.4331 48.0718 18.6667 46.4404C18.7134 46.4779 18.7601 46.5154 18.8162 46.5435C19.218 46.7404 19.7413 46.4966 19.9842 45.9903C20.2458 45.4934 20.1244 44.9215 19.7226 44.7246Z" fill="#FFC0BB"/>
<path d="M16.8036 47.0625C16.7195 47.4563 16.2616 47.7657 15.7103 47.7844C15.159 47.8032 14.6824 47.5219 14.5703 47.1281L16.8036 47.0625Z" fill="white" fill-opacity="0.5"/>
<path d="M11.937 44.7535C11.937 44.7535 14.5534 43.9565 15.6934 42.6345C15.6934 42.6345 15.3664 44.2378 15.1234 44.4909C15.1982 44.5378 17.7398 43.3002 18.0762 42.1658C18.4219 41.0219 15.4785 40.6094 15.4785 40.6094C15.4785 40.6094 14.4693 41.0407 14.4226 41.0688C14.3759 41.0969 13.4321 41.2094 13.32 41.4438C13.1798 41.7626 12.5164 41.7907 12.5164 41.7907L12.0959 42.672L11.7969 43.6002L11.937 44.7535Z" fill="#2C2C34"/>
<path d="M9.78906 41.1315C10.3684 41.3659 11.0318 41.469 11.7233 41.2627C13.2464 40.7939 13.8538 40.9721 14.0594 41.094C14.1809 41.1596 14.3304 41.1877 14.4612 41.1502C14.6107 41.1034 14.7509 40.9627 14.7041 40.6158C14.7041 40.6158 14.7602 39.1626 13.5174 38.3281C11.9756 38.7969 10.6581 39.8095 9.78906 41.1315Z" fill="#2C2C34"/>
<path d="M13.0773 41.0438C13.0305 40.9876 13.0492 40.8938 13.1053 40.8563C13.3576 40.6875 14.0117 40.3125 14.8059 40.2656C14.8807 40.2656 14.9461 40.3219 14.9461 40.3969C14.9461 40.4625 14.89 40.5188 14.8246 40.5281C14.1051 40.5656 13.4884 40.9219 13.2548 41.0719C13.1894 41.1188 13.1146 41.1001 13.0773 41.0438Z" fill="#FEB546"/>
<path d="M34.2696 40.1657H23.9431C23.7633 40.1657 23.6172 40.0438 23.6172 39.8938V39.2563C23.6172 39.1063 23.7633 38.9844 23.9431 38.9844H34.2696C34.4494 38.9844 34.5955 39.1063 34.5955 39.2563V39.9032C34.5955 40.0532 34.4494 40.1657 34.2696 40.1657Z" fill="white"/>
<path d="M30.7193 43.3079H23.9548C23.775 43.3079 23.6289 43.186 23.6289 43.036V42.3891C23.6289 42.2391 23.775 42.1172 23.9548 42.1172H30.7193C30.8991 42.1172 31.0452 42.2391 31.0452 42.3891V43.036C31.0339 43.186 30.8991 43.3079 30.7193 43.3079Z" fill="white"/>
<path d="M41.1109 43.3079H32.6384C32.4586 43.3079 32.3125 43.186 32.3125 43.036V42.3891C32.3125 42.2391 32.4586 42.1172 32.6384 42.1172H41.1109C41.2907 42.1172 41.4367 42.2391 41.4367 42.3891V43.036C41.4255 43.186 41.2907 43.3079 41.1109 43.3079Z" fill="white"/>
<path d="M54.6738 40.1657H36.7399C36.5601 40.1657 36.4141 40.0438 36.4141 39.8938V39.2563C36.4141 39.1063 36.5601 38.9844 36.7399 38.9844H54.6738C54.8536 38.9844 54.9997 39.1063 54.9997 39.2563V39.9032C54.9997 40.0532 54.8536 40.1657 54.6738 40.1657Z" fill="white"/>
<path d="M54.6761 49.4407H23.9548C23.775 49.4407 23.6289 49.3188 23.6289 49.1688V48.5219C23.6289 48.3719 23.775 48.25 23.9548 48.25H54.6761C54.8558 48.25 55.0019 48.3719 55.0019 48.5219V49.1688C55.0019 49.3188 54.8558 49.4407 54.6761 49.4407Z" fill="white"/>
<path d="M39.5177 46.4407H23.9548C23.775 46.4407 23.6289 46.3188 23.6289 46.1688V45.5219C23.6289 45.3719 23.775 45.25 23.9548 45.25H39.5177C39.6975 45.25 39.8435 45.3719 39.8435 45.5219V46.1688C39.8323 46.3188 39.6862 46.4407 39.5177 46.4407Z" fill="white"/>
<path d="M54.6759 46.4407H42.529C42.3492 46.4407 42.2031 46.3188 42.2031 46.1688V45.5219C42.2031 45.3719 42.3492 45.25 42.529 45.25H54.6759C54.8557 45.25 55.0018 45.3719 55.0018 45.5219V46.1688C55.0018 46.3188 54.8557 46.4407 54.6759 46.4407Z" fill="white"/>
<path d="M60.2252 117.976C61.5645 117.692 62.3373 115.974 61.9512 114.136C61.5652 112.299 60.1666 111.04 58.8273 111.323C57.488 111.606 56.7153 113.325 57.1013 115.162C57.4873 117 58.886 118.259 60.2252 117.976Z" fill="white"/>
<path d="M47.9894 13.586L48.9553 20.8796L43.7972 17.0929L27.9844 9L40.2025 10.119C40.2025 10.119 46.426 11.6377 46.7646 11.9474C47.1131 12.2572 47.9894 13.586 47.9894 13.586Z" fill="#051208"/>
<path d="M53.3964 9.18983L27.9844 9L47.9894 13.586L53.3964 9.18983Z" fill="#29BB80"/>
<path d="M39.8141 20.9296L46.4758 15.5643L27.9844 9L39.8141 20.9296Z" fill="#29BB80"/>
<path d="M79.4167 53.0028L79.0781 52.5033C79.5959 52.1536 80.0639 51.7239 80.4722 51.2344L80.9303 51.624C80.4822 52.1536 79.9743 52.6232 79.4167 53.0028Z" fill="#051208"/>
<path d="M82.7731 48.1099L82.2055 47.9301C82.554 46.821 82.7831 45.5621 82.8826 44.1933L83.4801 44.2433C83.3706 45.662 83.1316 46.9609 82.7731 48.1099ZM83.4602 40.3167L82.8627 40.3767C82.8428 40.2168 82.8229 40.047 82.803 39.8871C82.7333 39.3276 82.6237 38.7681 82.4843 38.2086C82.3549 37.699 82.2055 37.1795 82.0263 36.6799L82.5939 36.4801C82.7831 36.9996 82.9424 37.5391 83.0718 38.0687C83.2112 38.6482 83.3208 39.2277 83.4004 39.8072C83.4203 39.967 83.4403 40.1469 83.4602 40.3167ZM80.3932 33.2429C79.7559 32.1938 78.9892 31.1647 78.1229 30.1756L78.5709 29.7759C79.4572 30.7851 80.2438 31.8441 80.9011 32.9232L80.3932 33.2429ZM61.6927 31.8241C61.2844 31.9241 60.2488 31.944 59.5816 31.5444C59.0838 31.2447 58.6655 30.7751 58.3867 30.1956L58.9244 29.9358C59.1634 30.4254 59.492 30.795 59.8903 31.0348C60.3683 31.3246 61.2247 31.3246 61.5533 31.2447C61.5931 31.2347 61.613 31.2247 61.613 31.2247C61.6429 31.2047 61.6728 31.1847 61.7026 31.1647L62.0312 31.6643C62.0014 31.6843 61.9615 31.7142 61.9317 31.7342C61.8719 31.7742 61.7922 31.8042 61.6927 31.8241ZM75.3944 27.4979C74.4385 26.6886 73.4129 25.9093 72.3275 25.1999L72.6561 24.7004C73.7614 25.4197 74.8069 26.2091 75.7828 27.0383L75.3944 27.4979ZM64.1821 28.2972L63.5946 28.1773C63.6742 27.8077 63.7141 27.428 63.7141 27.0583C63.7141 26.5288 63.6444 25.9892 63.5149 25.4397C63.4452 25.14 63.3456 24.8403 63.2361 24.5405L63.7937 24.3307C63.9132 24.6504 64.0128 24.9801 64.0925 25.2998C64.2418 25.8893 64.3115 26.4888 64.3115 27.0583C64.3115 27.468 64.2717 27.8876 64.1821 28.2972ZM58.9244 26.4488L58.3867 26.1891C58.9244 25.0501 59.9501 24.0509 61.1848 23.4515L61.2645 23.4115L61.5234 23.951L61.4437 23.991C60.3285 24.5305 59.4124 25.4297 58.9244 26.4488ZM68.8523 23.7512C67.7669 23.4215 66.9105 23.2117 66.4923 23.2017C66.0143 23.1817 65.5762 23.1717 65.1579 23.1917L65.138 22.5922C65.5762 22.5822 66.0243 22.5822 66.5221 22.6122C67.1594 22.6422 68.3643 22.9919 69.0315 23.1917L68.8523 23.7512ZM61.3043 21.3233C60.4878 20.3642 59.5319 19.5349 58.4664 18.8455L58.785 18.3359C59.9003 19.0553 60.8961 19.9245 61.7524 20.9337L61.3043 21.3233Z" fill="#051208"/>
<path d="M55.0287 17.3029C54.4013 17.1331 53.7641 17.0132 53.1367 16.9432L53.1965 16.3438C53.8537 16.4137 54.5208 16.5336 55.188 16.7234L55.0287 17.3029Z" fill="#051208"/>
</g>
<defs>
<filter id="filter0_d_34_14695" x="-56.4023" y="-14" width="220.122" height="196" filterUnits="userSpaceOnUse" color-interpolation-filters="sRGB">
<feFlood flood-opacity="0" result="BackgroundImageFix"/>
<feColorMatrix in="SourceAlpha" type="matrix" values="0 0 0 0 0 0 0 0 0 0 0 0 0 0 0 0 0 0 127 0" result="hardAlpha"/>
<feOffset dy="4"/>
<feGaussianBlur stdDeviation="42"/>
<feComposite in2="hardAlpha" operator="out"/>
<feColorMatrix type="matrix" values="0 0 0 0 0 0 0 0 0 0 0 0 0 0 0 0 0 0 0.45 0"/>
<feBlend mode="normal" in2="BackgroundImageFix" result="effect1_dropShadow_34_14695"/>
<feBlend mode="normal" in="SourceGraphic" in2="effect1_dropShadow_34_14695" result="shape"/>
</filter>
<filter id="filter1_b_34_14695" x="13.5977" y="52" width="80.1218" height="56" filterUnits="userSpaceOnUse" color-interpolation-filters="sRGB">
<feFlood flood-opacity="0" result="BackgroundImageFix"/>
<feGaussianBlur in="BackgroundImageFix" stdDeviation="7"/>
<feComposite in2="SourceAlpha" operator="in" result="effect1_backgroundBlur_34_14695"/>
<feBlend mode="normal" in="SourceGraphic" in2="effect1_backgroundBlur_34_14695" result="shape"/>
</filter>
<clipPath id="clip0_34_14695">
<rect width="146" height="134" fill="white"/>
</clipPath>
</defs>
</svg>
