<svg width="105" height="41" viewBox="0 0 105 41" fill="none" xmlns="http://www.w3.org/2000/svg">
<circle cx="84.5" cy="20.6641" r="19" fill="white" stroke="#001225" stroke-width="2"/>
<path d="M87.8653 16.9141C87.2059 13.8516 85.7997 11.9141 84.4991 11.9141C83.1984 11.9141 81.7922 13.8516 81.1328 16.9141H87.8653Z" fill="#FFA501"/>
<path d="M80.75 20.6641C80.7498 21.5002 80.8056 22.3354 80.9169 23.1641H88.0831C88.1944 22.3354 88.2502 21.5002 88.25 20.6641C88.2502 19.8279 88.1944 18.9927 88.0831 18.1641H80.9169C80.8056 18.9927 80.7498 19.8279 80.75 20.6641Z" fill="#FFA501"/>
<path d="M81.1328 24.4141C81.7922 27.4766 83.1984 29.4141 84.4991 29.4141C85.7997 29.4141 87.2059 27.4766 87.8653 24.4141H81.1328Z" fill="#FFA501"/>
<path d="M89.1478 16.9147H93.0853C92.4937 15.5683 91.5948 14.3793 90.4606 13.443C89.3265 12.5068 87.9888 11.8493 86.5547 11.5234C87.7403 12.5666 88.6703 14.4953 89.1478 16.9147Z" fill="#FFA501"/>
<path d="M93.5319 18.1641H89.3444C89.4475 18.9934 89.499 19.8283 89.4987 20.6641C89.4988 21.4998 89.4471 22.3347 89.3438 23.1641H93.5312C93.987 21.5286 93.9877 19.7996 93.5319 18.1641Z" fill="#FFA501"/>
<path d="M86.5547 29.8053C87.989 29.4796 89.327 28.8222 90.4614 27.886C91.5957 26.9497 92.4948 25.7606 93.0866 24.4141H89.1491C88.6703 26.8334 87.7403 28.7622 86.5547 29.8053Z" fill="#FFA501"/>
<path d="M79.8555 24.4141H75.918C76.5097 25.7606 77.4088 26.9497 78.5432 27.886C79.6775 28.8222 81.0155 29.4796 82.4498 29.8053C81.263 28.7622 80.333 26.8334 79.8555 24.4141Z" fill="#FFA501"/>
<path d="M82.4459 11.5234C81.0116 11.8492 79.6736 12.5065 78.5393 13.4428C77.4049 14.379 76.5058 15.5681 75.9141 16.9147H79.8516C80.3303 14.4953 81.2603 12.5666 82.4459 11.5234Z" fill="#FFA501"/>
<path d="M79.4993 20.6641C79.4993 19.8283 79.551 18.9934 79.6543 18.1641H75.4668C75.0111 19.7996 75.0111 21.5286 75.4668 23.1641H79.6543C79.551 22.3347 79.4993 21.4998 79.4993 20.6641Z" fill="#FFA501"/>
<circle cx="52.5" cy="20.6641" r="19" fill="white" stroke="#001225" stroke-width="2"/>
<path d="M62.1082 21.5589C62.1082 21.5589 48.9696 16.3035 48.9435 16.2931C48.4596 16.0995 47.9257 16.5916 48.1311 17.1057C48.1311 17.1057 53.3866 30.2437 53.3972 30.2704C53.6137 30.8116 54.4183 30.769 54.5789 30.2097L56.2378 24.4004C56.2378 24.4004 62.0264 22.7463 62.0477 22.7402C62.6068 22.5804 62.6475 21.7748 62.1082 21.5589Z" fill="#29BB80"/>
<path d="M45.2036 12.4878C44.9595 12.2437 44.564 12.2437 44.3198 12.4878C44.0757 12.7319 44.0757 13.1278 44.3198 13.3716L46.0752 15.1267C46.1972 15.2487 46.357 15.3097 46.5169 15.3098C47.0636 15.31 47.3464 14.6298 46.959 14.2429L45.2036 12.4878Z" fill="#29BB80"/>
<path d="M50.9041 15.3076C51.0648 15.3076 51.2255 15.2471 51.346 15.1266L53.1013 13.3716C53.3455 13.1277 53.3455 12.7319 53.1013 12.4878C52.8572 12.2437 52.4617 12.2436 52.2175 12.4878C52.2175 12.4878 50.4704 14.2346 50.4622 14.2428C50.077 14.6279 50.3639 15.3077 50.9041 15.3076Z" fill="#29BB80"/>
<path d="M46.0715 18.6284C46.0715 18.6284 44.3244 20.3753 44.3162 20.3835C43.9335 20.7661 44.2198 21.4504 44.758 21.4504C44.918 21.4504 45.0779 21.3893 45.1999 21.2673L46.9553 19.5122C47.1995 19.2684 47.1995 18.8726 46.9553 18.6284C46.7112 18.3843 46.3157 18.3843 46.0715 18.6284Z" fill="#29BB80"/>
<path d="M45.9753 16.875C45.9753 16.5298 45.6958 16.25 45.3503 16.25H43.125C42.7795 16.25 42.5 16.5298 42.5 16.875C42.5 17.2202 42.7795 17.5 43.125 17.5H45.3503C45.6958 17.5 45.9753 17.2202 45.9753 16.875Z" fill="#29BB80"/>
<path d="M48.7109 14.1394C49.0564 14.1394 49.3359 13.8596 49.3359 13.5144V11.2891C49.3359 10.9439 49.0564 10.6641 48.7109 10.6641C48.3655 10.6641 48.0859 10.9439 48.0859 11.2891V13.5144C48.0859 13.8596 48.3655 14.1394 48.7109 14.1394Z" fill="#29BB80"/>
<circle cx="20.5" cy="20.6641" r="19" fill="white" stroke="#001225" stroke-width="2"/>
<path fill-rule="evenodd" clip-rule="evenodd" d="M16.2038 30.6604H13.7569C13.6275 30.6604 13.5234 30.5563 13.5234 30.4269V25.8819C13.5234 25.7525 13.6275 25.6484 13.7569 25.6484H16.2038C16.3332 25.6484 16.4372 25.7525 16.4372 25.8819V30.4269C16.4372 30.5563 16.3332 30.6604 16.2038 30.6604Z" fill="url(#paint0_linear_2_952)"/>
<path fill-rule="evenodd" clip-rule="evenodd" d="M19.696 30.6667H17.2519C17.1225 30.6667 17.0156 30.5626 17.0156 30.4332V23.835C17.0156 23.7056 17.1225 23.6016 17.2519 23.6016H19.696C19.8254 23.6016 19.9322 23.7056 19.9322 23.835V30.4332C19.9322 30.5626 19.8254 30.6667 19.696 30.6667Z" fill="url(#paint1_linear_2_952)"/>
<path fill-rule="evenodd" clip-rule="evenodd" d="M23.1921 30.6664H20.7452C20.6158 30.6664 20.5117 30.5623 20.5117 30.433V21.6944C20.5117 21.565 20.6158 21.4609 20.7452 21.4609H23.1921C23.3214 21.4609 23.4255 21.565 23.4255 21.6944V30.433C23.4255 30.5623 23.3214 30.6664 23.1921 30.6664Z" fill="url(#paint2_linear_2_952)"/>
<path fill-rule="evenodd" clip-rule="evenodd" d="M26.6843 30.6677H24.2402C24.1108 30.6677 24.0039 30.5636 24.0039 30.4342V18.7256C24.0039 18.5963 24.1108 18.4922 24.2402 18.4922H26.6843C26.8136 18.4922 26.9205 18.5963 26.9205 18.7256V30.4342C26.9205 30.5636 26.8136 30.6677 26.6843 30.6677Z" fill="url(#paint3_linear_2_952)"/>
<path fill-rule="evenodd" clip-rule="evenodd" d="M30.1804 30.6643H27.7334C27.6041 30.6643 27.5 30.5602 27.5 30.4308V16.6269C27.5 16.4975 27.6041 16.3906 27.7334 16.3906H30.1804C30.3097 16.3906 30.4138 16.4975 30.4138 16.6269V30.4308C30.4138 30.5602 30.3097 30.6643 30.1804 30.6643Z" fill="url(#paint4_linear_2_952)"/>
<path fill-rule="evenodd" clip-rule="evenodd" d="M11.3503 25.6679C10.7794 25.6679 10.4025 25.0491 10.6781 24.54C10.6838 24.5288 10.6894 24.5203 10.6978 24.5119L13.6623 20.4731C13.7635 20.2959 13.9238 20.1721 14.1207 20.1159C14.326 20.0596 14.5313 20.085 14.7141 20.1918L16.1148 21.0131L18.1342 18.2174C18.213 18.0346 18.3536 17.8968 18.542 17.8209C18.7361 17.7421 18.9442 17.7449 19.1383 17.8293L20.2745 18.3243L22.3108 15.1911C22.4121 15.0083 22.5752 14.8846 22.7749 14.8311C22.9802 14.7749 23.1855 14.803 23.3655 14.9127L24.7887 15.7593L27.4972 12.5361L26.254 11.6811C26.0825 11.5658 26.1387 11.2958 26.3412 11.2592L29.5109 10.6686C29.6403 10.6432 29.7613 10.7276 29.7866 10.8542L30.3772 14.0239C30.4138 14.2292 30.186 14.3783 30.0144 14.2602L28.7628 13.4023L25.6296 17.2133C25.4862 17.4187 25.2528 17.5424 24.9996 17.5424C24.8646 17.5424 24.7268 17.5058 24.6087 17.4327L23.2474 16.6199L21.2561 19.6771C21.0424 20.0259 20.643 20.1553 20.2858 20.0006L19.2002 19.5253L17.1414 22.4053C17.0542 22.6022 16.8995 22.7456 16.6914 22.8159C16.4776 22.8891 16.2526 22.8666 16.0557 22.7512L14.5932 21.8934L12.0141 25.2825C11.8791 25.5188 11.626 25.6679 11.3503 25.6679Z" fill="url(#paint5_linear_2_952)"/>
<defs>
<linearGradient id="paint0_linear_2_952" x1="14.9803" y1="25.6484" x2="14.9803" y2="33.2666" gradientUnits="userSpaceOnUse">
<stop stop-color="#AA5DF6"/>
<stop offset="1" stop-color="#3434B7"/>
</linearGradient>
<linearGradient id="paint1_linear_2_952" x1="18.4739" y1="23.6016" x2="18.4739" y2="34.3405" gradientUnits="userSpaceOnUse">
<stop stop-color="#AA5DF6"/>
<stop offset="1" stop-color="#3434B7"/>
</linearGradient>
<linearGradient id="paint2_linear_2_952" x1="21.9686" y1="21.4609" x2="21.9686" y2="35.4532" gradientUnits="userSpaceOnUse">
<stop stop-color="#AA5DF6"/>
<stop offset="1" stop-color="#3434B7"/>
</linearGradient>
<linearGradient id="paint3_linear_2_952" x1="25.4622" y1="18.4922" x2="25.4622" y2="36.999" gradientUnits="userSpaceOnUse">
<stop stop-color="#AA5DF6"/>
<stop offset="1" stop-color="#3434B7"/>
</linearGradient>
<linearGradient id="paint4_linear_2_952" x1="28.9569" y1="16.3906" x2="28.9569" y2="38.0866" gradientUnits="userSpaceOnUse">
<stop stop-color="#AA5DF6"/>
<stop offset="1" stop-color="#3434B7"/>
</linearGradient>
<linearGradient id="paint5_linear_2_952" x1="20.4835" y1="10.6641" x2="20.4835" y2="33.4698" gradientUnits="userSpaceOnUse">
<stop stop-color="#AA5DF6"/>
<stop offset="1" stop-color="#3434B7"/>
</linearGradient>
</defs>
</svg>
