<svg width="157" height="141" viewBox="0 0 157 141" fill="none" xmlns="http://www.w3.org/2000/svg">
<g clip-path="url(#clip0_34_14476)">
<path d="M76.6416 116.405C115.147 116.405 146.361 110.318 146.361 102.808C146.361 95.2986 115.147 89.2109 76.6416 89.2109C38.1365 89.2109 6.92188 95.2986 6.92188 102.808C6.92188 110.318 38.1365 116.405 76.6416 116.405Z" fill="#ECECEC"/>
<path d="M135.621 80.937C129.583 85.7074 121.227 78.3409 123.218 72.3049C124.262 69.1896 126.71 66.7232 127.2 63.4132C127.722 60.0058 129.321 58.5779 131.965 56.5334C133.01 55.7222 133.402 54.2618 133.891 53.0287C134.805 50.7571 136.176 48.8424 138.363 47.6092C141.072 46.1165 146.36 48.1285 147.013 51.5034C147.829 55.5923 142.476 57.5394 140.713 60.168C139.212 62.4396 140.615 65.3927 138.428 67.859C135.131 71.591 140.354 77.4323 135.621 80.937Z" fill="#B5B5B5" fill-opacity="0.22"/>
<path d="M129.287 87.883C129.157 87.883 129.059 87.7856 129.059 87.6558C127.982 75.9408 131.572 64.0959 138.916 55.1069C139.014 55.0095 139.145 54.9771 139.275 55.0744C139.373 55.1718 139.406 55.3016 139.308 55.4314C132.062 64.3231 128.504 76.0381 129.581 87.6234C129.549 87.7532 129.451 87.883 129.287 87.883C129.32 87.883 129.32 87.883 129.287 87.883Z" fill="white"/>
<path d="M132.717 73.249C131.085 75.5531 129.812 78.1168 127.038 78.6035C122.86 79.3499 117.866 83.309 118.127 88.5013C118.062 99.0156 134.186 98.8209 135.426 91.0001C136.014 87.3006 136.96 85.7104 140.747 85.1588C143.032 84.8343 143.717 82.9196 144.337 80.9725C144.925 80.0639 145.773 79.3824 146.785 79.0254C148.221 78.5062 149.853 78.7334 151.42 78.6685C152.791 78.636 154.162 78.3439 155.174 77.4677C156.153 76.624 156.773 75.3908 156.936 74.0603C157.1 72.7298 156.773 71.3019 155.957 70.1012C155.206 68.9654 154.097 68.0568 152.856 67.57C151.485 67.0183 150.049 67.0183 148.776 67.57C147.307 68.1866 146.132 69.2899 144.99 70.3608C144.99 70.3608 144.957 70.3608 144.957 70.3933C143.489 71.7887 141.367 72.2755 139.278 71.7563C136.863 71.1072 134.48 70.7827 132.717 73.249Z" fill="#E0E0E0"/>
<path d="M117.929 98.0381C117.896 98.0381 117.831 98.0381 117.799 98.0056C117.668 97.9407 117.635 97.7785 117.701 97.6811C124.555 86.1932 135.326 77.6585 148.023 73.602C148.154 73.5696 148.285 73.6345 148.317 73.7643C148.35 73.8941 148.285 74.0239 148.154 74.0563C135.588 78.0803 124.914 86.5502 118.125 97.9407C118.092 98.0056 118.027 98.0381 117.929 98.0381Z" fill="white"/>
<path d="M20.3661 85.2808C26.4046 90.0512 34.7605 82.6847 32.7695 76.6487C31.725 73.5333 29.2769 71.067 28.7873 67.7569C28.2651 64.3495 26.6657 62.9216 24.0218 60.8772C22.9774 60.0659 22.5857 58.6056 22.0961 57.3724C21.1821 55.1008 19.8112 53.1862 17.6243 51.953C14.9152 50.4602 9.62746 52.4722 8.97465 55.8472C8.15864 59.9361 13.5117 61.8832 15.2742 64.5118C16.7757 66.7834 15.3722 69.7365 17.5591 72.2028C20.8557 75.9347 15.6006 81.776 20.3661 85.2808Z" fill="#B5B5B5" fill-opacity="0.22"/>
<path d="M26.7019 92.258C26.6693 92.2255 26.6693 92.258 26.7019 92.258C26.5387 92.258 26.4408 92.1282 26.4734 91.9984C27.5179 80.4131 23.9928 68.6981 16.7466 59.8064C16.6487 59.709 16.6813 59.5468 16.7793 59.4494C16.8772 59.3521 17.0404 59.3845 17.1383 59.4819C24.4497 68.4709 28.0402 80.3158 26.9957 92.0308C26.9304 92.1606 26.7998 92.258 26.7019 92.258Z" fill="white"/>
<path d="M24.2834 76.2022C25.9154 78.5062 27.1884 81.0699 29.9628 81.5567C34.1407 82.3031 39.1347 86.2622 38.8736 91.4544C38.9389 101.969 22.8146 101.774 21.5742 93.9532C20.9867 90.2537 20.0401 88.6636 16.2538 88.1119C13.969 87.7874 13.2836 85.8727 12.6634 83.9256C12.0759 83.017 11.2272 82.3355 10.2154 81.9785C8.77921 81.4593 7.14719 81.6865 5.58045 81.6216C4.20956 81.5891 2.83867 81.2971 1.82682 80.4209C0.847606 79.5771 0.22744 78.344 0.0642379 77.0135C-0.0989637 75.6829 0.22744 74.2551 1.04345 73.0544C1.79418 71.9186 2.90395 71.0099 4.14428 70.5231C5.51517 69.9715 6.95135 69.9715 8.22432 70.5231C9.69314 71.1397 10.8682 72.2431 12.0106 73.314C12.0106 73.314 12.0432 73.314 12.0432 73.3464C13.5121 74.7418 15.6337 75.2286 17.7227 74.7094C20.138 74.0604 22.5208 73.7358 24.2834 76.2022Z" fill="#E0E0E0"/>
<path d="M39.0683 100.992C38.9704 100.992 38.9051 100.96 38.8725 100.863C32.0833 89.4721 21.4099 81.0022 8.84339 76.9782C8.71283 76.9458 8.64755 76.816 8.68019 76.6862C8.71283 76.5563 8.84339 76.4914 8.97396 76.5239C21.671 80.5803 32.4424 89.1476 39.2968 100.603C39.3621 100.733 39.3295 100.863 39.1989 100.927C39.1336 100.992 39.101 100.992 39.0683 100.992Z" fill="white"/>
<path d="M139.567 111.567H16.4807C15.1098 111.567 14 110.464 14 109.101V108.062H142.081V109.101C142.048 110.464 140.938 111.567 139.567 111.567Z" fill="#001225"/>
<path d="M128.7 88.6875H27.3513L13.9688 108.061H142.049L128.7 88.6875Z" fill="#011225"/>
<path d="M126.968 24.7656H29.0801C28.1335 24.7656 27.3828 25.512 27.3828 26.4531V88.6953H128.633V26.4531C128.666 25.512 127.882 24.7656 126.968 24.7656Z" fill="#001225"/>
<path d="M125.404 30.0469H30.3555V83.7218H125.404V30.0469Z" fill="white"/>
<path d="M139.571 111.829H16.484C14.9825 111.829 13.7422 110.596 13.7422 109.103V108.064C13.7422 107.934 13.8401 107.805 14.0033 107.805H142.084C142.215 107.805 142.345 107.902 142.345 108.064V109.103C142.312 110.596 141.072 111.829 139.571 111.829ZM14.2318 108.324V109.135C14.2318 110.368 15.2436 111.374 16.484 111.374H139.603C140.844 111.374 141.855 110.368 141.855 109.135V108.324H14.2318Z" fill="#081C0D"/>
<path d="M142.052 108.329H13.9717C13.8738 108.329 13.8085 108.264 13.7432 108.199C13.7106 108.134 13.7106 108.037 13.7432 107.94L27.0931 88.5661C27.1258 88.5012 27.2237 88.4688 27.289 88.4688H128.637C128.702 88.4688 128.8 88.5012 128.833 88.5661L142.183 107.94C142.248 108.005 142.248 108.102 142.183 108.199C142.248 108.264 142.15 108.329 142.052 108.329ZM14.4613 107.842H141.628L128.605 88.9555H27.4848L14.4613 107.842Z" fill="#081C0D"/>
<path d="M128.669 88.9152H27.3861C27.2556 88.9152 27.125 88.8179 27.125 88.6556V26.4459C27.125 25.375 28.0063 24.5312 29.0508 24.5312H126.972C128.049 24.5312 128.898 25.4074 128.898 26.4459V88.6881C128.898 88.8179 128.8 88.9152 128.669 88.9152ZM27.6472 88.4284H128.408V26.4459C128.408 25.6671 127.755 25.018 126.972 25.018H29.0834C28.3001 25.018 27.6472 25.6671 27.6472 26.4459V88.4284Z" fill="#081C0D"/>
<path d="M125.569 83.9508H30.4877C30.3571 83.9508 30.2266 83.8534 30.2266 83.6912V30.0487C30.2266 29.9189 30.3245 29.7891 30.4877 29.7891H125.536C125.667 29.7891 125.797 29.8864 125.797 30.0487V83.7236C125.797 83.8534 125.7 83.9508 125.569 83.9508ZM30.7488 83.464H125.308V30.3083H30.7488V83.464Z" fill="#081C0D"/>
<path d="M104.09 85.9375H51.9961V88.274H104.09V85.9375Z" fill="white"/>
<path d="M73.605 27.3558C73.605 28.2319 72.8869 28.9459 72.0056 28.9459C71.1243 28.9459 70.4062 28.2319 70.4062 27.3558C70.4062 26.4796 71.1243 25.7656 72.0056 25.7656C72.8869 25.7656 73.605 26.4796 73.605 27.3558Z" fill="#67A4E9"/>
<path d="M96.3874 106.739H59.667C59.5691 106.739 59.5038 106.674 59.4385 106.609C59.4059 106.544 59.4059 106.447 59.4385 106.35L63.2575 100.8C63.2901 100.736 63.388 100.703 63.4533 100.703H92.5358C92.6011 100.703 92.699 100.736 92.7317 100.8L96.5506 106.35C96.6159 106.415 96.6159 106.512 96.5506 106.609C96.5506 106.707 96.4853 106.739 96.3874 106.739Z" fill="white" fill-opacity="0.1"/>
<path d="M40.6345 93.8822H33.8453C33.7474 93.8822 33.6821 93.8497 33.6495 93.7524C33.6168 93.6875 33.6168 93.5901 33.6495 93.5252L35.3794 90.4423C35.4121 90.3774 35.51 90.3125 35.6079 90.3125H42.1033C42.2012 90.3125 42.2665 90.345 42.2992 90.4099C42.3318 90.4748 42.3645 90.5721 42.2992 90.637L40.8304 93.7199C40.7977 93.8173 40.7324 93.8822 40.6345 93.8822ZM34.2696 93.3954H40.4713L41.7116 90.7993H35.7385L34.2696 93.3954Z" fill="#001225"/>
<path d="M51.9765 94.1947H45.1873C45.0894 94.1947 45.0241 94.1622 44.9915 94.0973C44.9588 94.0324 44.9262 93.9351 44.9588 93.8702L46.2318 90.7873C46.2644 90.6899 46.3624 90.625 46.4603 90.625H53.021C53.0863 90.625 53.1842 90.6575 53.2168 90.7224C53.2495 90.7873 53.2821 90.8522 53.2495 90.9495L52.2376 94.0324C52.205 94.1298 52.1071 94.1947 51.9765 94.1947Z" fill="#F9FCFF" fill-opacity="0.1"/>
<path d="M41.0312 94.0697H34.242C34.1441 94.0697 34.0788 94.0372 34.0462 93.9723C34.0135 93.9074 33.9809 93.8101 34.0135 93.7452L35.2865 90.6623C35.3191 90.5649 35.4171 90.5 35.515 90.5H42.0757C42.141 90.5 42.2389 90.5325 42.2715 90.5974C42.3042 90.6623 42.3368 90.7272 42.3042 90.8245L41.2923 93.9074C41.2597 94.0048 41.1618 94.0697 41.0312 94.0697Z" fill="#F9FCFF" fill-opacity="0.1"/>
<path d="M63.9765 94.1947H57.1873C57.0894 94.1947 57.0241 94.1622 56.9915 94.0973C56.9588 94.0324 56.9262 93.9351 56.9588 93.8702L58.2318 90.7873C58.2644 90.6899 58.3624 90.625 58.4603 90.625H65.021C65.0863 90.625 65.1842 90.6575 65.2168 90.7224C65.2495 90.7873 65.2821 90.8522 65.2495 90.9495L64.2376 94.0324C64.205 94.1298 64.1071 94.1947 63.9765 94.1947Z" fill="#F9FCFF" fill-opacity="0.1"/>
<path d="M74.9765 94.1947H68.1873C68.0894 94.1947 68.0241 94.1622 67.9915 94.0973C67.9588 94.0324 67.9262 93.9351 67.9588 93.8702L69.2318 90.7873C69.2644 90.6899 69.3624 90.625 69.4603 90.625H76.021C76.0863 90.625 76.1842 90.6575 76.2168 90.7224C76.2495 90.7873 76.2821 90.8522 76.2495 90.9495L75.2376 94.0324C75.205 94.1298 75.1071 94.1947 74.9765 94.1947Z" fill="#F9FCFF" fill-opacity="0.1"/>
<path d="M86.9765 94.1947H80.1873C80.0894 94.1947 80.0241 94.1622 79.9915 94.0973C79.9588 94.0324 79.9262 93.9351 79.9588 93.8702L81.2318 90.7873C81.2644 90.6899 81.3624 90.625 81.4603 90.625H88.021C88.0863 90.625 88.1842 90.6575 88.2168 90.7224C88.2495 90.7873 88.2821 90.8522 88.2495 90.9495L87.2376 94.0324C87.205 94.1298 87.1071 94.1947 86.9765 94.1947Z" fill="#F9FCFF" fill-opacity="0.1"/>
<path d="M97.9765 94.1947H91.1873C91.0894 94.1947 91.0241 94.1622 90.9915 94.0973C90.9588 94.0324 90.9262 93.9351 90.9588 93.8702L92.2318 90.7873C92.2644 90.6899 92.3624 90.625 92.4603 90.625H99.021C99.0863 90.625 99.1842 90.6575 99.2168 90.7224C99.2495 90.7873 99.2821 90.8522 99.2495 90.9495L98.2376 94.0324C98.205 94.1298 98.1071 94.1947 97.9765 94.1947Z" fill="#F9FCFF" fill-opacity="0.1"/>
<path d="M110.809 93.8822H104.019C103.922 93.8822 103.824 93.8173 103.791 93.7199L102.779 90.637C102.747 90.5721 102.779 90.4748 102.812 90.4099C102.844 90.345 102.942 90.3125 103.008 90.3125H109.503C109.601 90.3125 109.699 90.3774 109.732 90.4748L111.005 93.5577C111.037 93.6226 111.037 93.7199 110.972 93.7848C110.972 93.8497 110.874 93.8822 110.809 93.8822ZM104.215 93.3954H110.45L109.372 90.7993H103.367L104.215 93.3954Z" fill="#29275F"/>
<path d="M122.495 93.881H115.706C115.608 93.881 115.51 93.8161 115.478 93.7512L114.009 90.6683C113.976 90.6034 113.976 90.506 114.009 90.4411C114.041 90.3762 114.139 90.3438 114.205 90.3438H120.765C120.863 90.3438 120.929 90.3762 120.994 90.4736L122.724 93.5565C122.756 93.6214 122.756 93.7187 122.724 93.7836C122.659 93.8161 122.593 93.881 122.495 93.881ZM115.869 93.3942H122.071L120.602 90.7981H114.629L115.869 93.3942Z" fill="#29275F"/>
<path d="M33.9765 98.1947H27.1873C27.0894 98.1947 27.0241 98.1622 26.9915 98.0973C26.9588 98.0324 26.9262 97.9351 26.9588 97.8702L28.2318 94.7873C28.2644 94.6899 28.3624 94.625 28.4603 94.625H35.021C35.0863 94.625 35.1842 94.6575 35.2168 94.7224C35.2495 94.7873 35.2821 94.8522 35.2495 94.9495L34.2376 98.0324C34.205 98.1298 34.1071 98.1947 33.9765 98.1947Z" fill="#F9FCFF" fill-opacity="0.1"/>
<path d="M44.9765 98.1947H38.1873C38.0894 98.1947 38.0241 98.1622 37.9915 98.0973C37.9588 98.0324 37.9262 97.9351 37.9588 97.8702L39.2318 94.7873C39.2644 94.6899 39.3624 94.625 39.4603 94.625H46.021C46.0863 94.625 46.1842 94.6575 46.2168 94.7224C46.2495 94.7873 46.2821 94.8522 46.2495 94.9495L45.2376 98.0324C45.205 98.1298 45.1071 98.1947 44.9765 98.1947Z" fill="#F9FCFF" fill-opacity="0.1"/>
<path d="M55.9765 98.1947H49.1873C49.0894 98.1947 49.0241 98.1622 48.9915 98.0973C48.9588 98.0324 48.9262 97.9351 48.9588 97.8702L50.2318 94.7873C50.2644 94.6899 50.3624 94.625 50.4603 94.625H57.021C57.0863 94.625 57.1842 94.6575 57.2168 94.7224C57.2495 94.7873 57.2821 94.8522 57.2495 94.9495L56.2376 98.0324C56.205 98.1298 56.1071 98.1947 55.9765 98.1947Z" fill="#F9FCFF" fill-opacity="0.1"/>
<path d="M67.9765 98.1947H61.1873C61.0894 98.1947 61.0241 98.1622 60.9915 98.0973C60.9588 98.0324 60.9262 97.9351 60.9588 97.8702L62.2318 94.7873C62.2644 94.6899 62.3624 94.625 62.4603 94.625H69.021C69.0863 94.625 69.1842 94.6575 69.2168 94.7224C69.2495 94.7873 69.2821 94.8522 69.2495 94.9495L68.2376 98.0324C68.205 98.1298 68.1071 98.1947 67.9765 98.1947Z" fill="#F9FCFF" fill-opacity="0.1"/>
<path d="M79.9766 98.1947H73.1874C73.0895 98.1947 73.0242 98.1622 72.9916 98.0973C72.959 98.0324 72.9263 97.9351 72.959 97.8702L74.2319 94.7873C74.2646 94.6899 74.3625 94.625 74.4604 94.625H81.0211C81.0864 94.625 81.1843 94.6575 81.217 94.7224C81.2496 94.7873 81.2822 94.8522 81.2496 94.9495L80.2378 98.0324C80.2051 98.1298 80.1072 98.1947 79.9766 98.1947Z" fill="#F9FCFF" fill-opacity="0.1"/>
<path d="M90.9765 98.1947H84.1873C84.0894 98.1947 84.0241 98.1622 83.9915 98.0973C83.9588 98.0324 83.9262 97.9351 83.9588 97.8702L85.2318 94.7873C85.2644 94.6899 85.3624 94.625 85.4603 94.625H92.021C92.0863 94.625 92.1842 94.6575 92.2168 94.7224C92.2495 94.7873 92.2821 94.8522 92.2495 94.9495L91.2376 98.0324C91.205 98.1298 91.1071 98.1947 90.9765 98.1947Z" fill="#F9FCFF" fill-opacity="0.1"/>
<path d="M101.977 98.1947H95.1873C95.0894 98.1947 95.0241 98.1622 94.9915 98.0973C94.9588 98.0324 94.9262 97.9351 94.9588 97.8702L96.2318 94.7873C96.2644 94.6899 96.3624 94.625 96.4603 94.625H103.021C103.086 94.625 103.184 94.6575 103.217 94.7224C103.249 94.7873 103.282 94.8522 103.249 94.9495L102.238 98.0324C102.205 98.1298 102.107 98.1947 101.977 98.1947Z" fill="#F9FCFF" fill-opacity="0.1"/>
<path d="M115.152 98.1935H108.362C108.264 98.1935 108.167 98.1286 108.134 98.0637L106.665 94.9808C106.632 94.9159 106.632 94.8185 106.665 94.7536C106.698 94.6887 106.796 94.6562 106.861 94.6562H113.356C113.454 94.6562 113.52 94.6887 113.585 94.7861L115.315 97.869C115.347 97.9339 115.347 98.0312 115.315 98.0961C115.347 98.1286 115.25 98.1935 115.152 98.1935ZM108.558 97.7067H114.76L113.291 95.1106H107.318L108.558 97.7067Z" fill="#29275F"/>
<path d="M126.613 98.1935H119.823C119.725 98.1935 119.627 98.1286 119.595 98.0637L118.126 94.9808C118.093 94.9159 118.093 94.8185 118.126 94.7536C118.159 94.6887 118.257 94.6562 118.322 94.6562H124.817C124.915 94.6562 124.981 94.6887 125.046 94.7861L126.776 97.869C126.808 97.9339 126.808 98.0312 126.776 98.0961C126.776 98.1286 126.71 98.1935 126.613 98.1935ZM120.019 97.7067H126.221L124.752 95.1106H118.779L120.019 97.7067Z" fill="#29275F"/>
<g filter="url(#filter0_d_34_14476)">
<path d="M105.917 11.6075V63.887C105.917 67.0024 103.371 69.5336 100.237 69.5336H55.781C52.6475 69.5336 50.1016 67.0024 50.1016 63.887V11.6075C50.1016 8.49216 52.6475 5.96094 55.781 5.96094H100.237C103.371 5.96094 105.917 8.49216 105.917 11.6075Z" fill="white"/>
</g>
<path d="M88.6157 9.14542C88.6157 9.92426 87.9955 10.5408 87.2121 10.5408C86.4288 10.5408 85.8086 9.92426 85.8086 9.14542C85.8086 8.36658 86.4288 7.75 87.2121 7.75C87.9955 7.75 88.6157 8.36658 88.6157 9.14542Z" fill="#B5B5B5"/>
<path d="M94.7836 9.14542C94.7836 9.92426 94.1635 10.5408 93.3801 10.5408C92.5967 10.5408 91.9766 9.92426 91.9766 9.14542C91.9766 8.36658 92.5967 7.75 93.3801 7.75C94.1635 7.75 94.7836 8.36658 94.7836 9.14542Z" fill="#B5B5B5"/>
<path d="M100.955 9.14542C100.955 9.92426 100.335 10.5408 99.552 10.5408C98.7686 10.5408 98.1484 9.92426 98.1484 9.14542C98.1484 8.36658 98.7686 7.75 99.552 7.75C100.335 7.75 100.955 8.36658 100.955 9.14542Z" fill="#B5B5B5"/>
<path d="M105.819 11.637H50.1979C50.0677 11.637 49.9375 11.5762 49.9375 11.4748C49.9375 11.3936 50.0351 11.3125 50.1979 11.3125H105.819C105.949 11.3125 106.079 11.3733 106.079 11.4748C106.046 11.5762 105.949 11.637 105.819 11.637Z" fill="#051208"/>
<path d="M69.3596 18.7138L63.2885 16.1501L57.25 18.7138V4.5H69.3596V18.7138Z" fill="#25AB75"/>
<path d="M68.3492 22.0625H54.2812V37.1525H68.3492V22.0625Z" fill="#E0E0E0"/>
<path d="M101.739 22.0625H70.2734V23.3606H101.739V22.0625Z" fill="#E0E0E0" fill-opacity="0.878431"/>
<path d="M101.739 25.4688H70.2734V26.7668H101.739V25.4688Z" fill="#E0E0E0" fill-opacity="0.878431"/>
<path d="M101.739 28.9062H70.2734V30.2043H101.739V28.9062Z" fill="#E0E0E0" fill-opacity="0.878431"/>
<path d="M101.739 32.3438H70.2734V33.6418H101.739V32.3438Z" fill="#E0E0E0" fill-opacity="0.878431"/>
<path d="M88.4541 35.7812H70.2734V37.0793H88.4541V35.7812Z" fill="#E0E0E0" fill-opacity="0.878431"/>
<path d="M101.74 42.4375H54.2812V43.7356H101.74V42.4375Z" fill="#E0E0E0" fill-opacity="0.878431"/>
<path d="M101.74 45.875H54.2812V47.1731H101.74V45.875Z" fill="#E0E0E0" fill-opacity="0.878431"/>
<path d="M101.74 49.3125H54.2812V50.6106H101.74V49.3125Z" fill="#E0E0E0" fill-opacity="0.878431"/>
<path d="M101.74 52.7266H54.2812V54.0246H101.74V52.7266Z" fill="#E0E0E0" fill-opacity="0.878431"/>
<path d="M88.4557 56.1641H54.2812V57.4621H88.4557V56.1641Z" fill="#E0E0E0" fill-opacity="0.878431"/>
<path d="M101.576 15.7656H79.707V19.3353H101.576V15.7656Z" fill="#E0E0E0"/>
<path d="M79.3788 66.225C79.3461 66.225 79.3135 66.225 79.2808 66.1925L74.2869 63.8235C74.1563 63.7586 74.1237 63.6288 74.1563 63.499C74.2216 63.3692 74.3521 63.3368 74.4827 63.3692L79.3788 65.7057L84.2748 63.3692C84.4054 63.3043 84.5359 63.3692 84.6012 63.499C84.6665 63.6288 84.6012 63.7586 84.4706 63.8235L79.4767 66.1925C79.444 66.225 79.4114 66.225 79.3788 66.225Z" fill="#E0E0E0" fill-opacity="0.878431"/>
<path d="M148.153 132.238H119.136L111.302 102.805C111.302 102.805 103.305 94.4323 99.5188 88.4288C95.7325 82.4252 94.2311 80.4457 93.9373 78.4661C93.6435 76.7138 91.5872 63.9927 91.1302 61.2992C91.0649 61.0072 91.1629 60.7151 91.3913 60.488C91.424 60.4555 91.4566 60.4231 91.5219 60.3906C92.4358 59.7091 94.6554 58.8005 97.2013 63.149C100.106 68.1465 100.531 74.4746 100.596 75.9674L101.64 77.6873L104.48 82.4252L108.005 88.3639C108.005 88.3639 111.759 87.6824 114.337 84.6319L110.812 78.6933L107.973 73.9554L106.863 72.0732V72.0407L99.225 61.4291C99.225 61.4291 95.4714 59.8065 91.8157 58.0865C88.1273 56.3666 86.9523 50.3631 89.6288 50.7525C90.6406 50.9147 92.8928 51.726 95.2755 52.6671C99.1597 54.2248 103.468 56.1394 103.468 56.1394C105.133 54.6142 108.005 55.4904 108.005 55.4904C108.005 55.4904 109.996 54.452 112.02 54.744C114.011 55.0361 123.183 63.6033 124.619 66.459C126.055 69.3148 129.45 96.0225 129.45 96.0225L148.153 132.238Z" fill="#FFDBD5"/>
<path d="M93.4498 52.9628C93.3845 53.4171 93.2539 53.9688 92.9602 54.3907C92.6338 54.8774 92.0136 55.0721 91.4913 54.845L88.8801 53.7741C88.3905 53.5794 88.0641 53.0601 88.1294 52.5085C88.1947 52.0866 88.2926 51.5998 88.5864 51.1779C88.8801 50.7236 89.4676 50.5289 89.9899 50.7236L92.6338 51.6323C93.1886 51.8594 93.5477 52.4111 93.4498 52.9628Z" fill="#F2C9C1"/>
<path d="M94.5604 65.1328C93.8749 65.6845 92.7978 65.7169 92.2103 65.6845C91.9818 65.6845 91.786 65.5222 91.7533 65.295L91.1332 61.5631C91.1005 61.4008 91.1658 61.2061 91.329 61.1088C92.0471 60.5571 92.9284 60.5571 93.3527 60.5896C93.5159 60.622 93.6791 60.6869 93.7444 60.8492C94.2014 61.8552 94.593 63.9645 94.691 64.6785C94.7562 64.8407 94.691 65.003 94.5604 65.1328Z" fill="#F2C9C1"/>
<path d="M107.944 73.9576C105.366 77.0081 101.612 77.6896 101.612 77.6896L100.568 75.9696C100.502 74.5093 100.078 68.1812 97.173 63.1512C94.627 58.8027 92.4075 59.7114 91.4936 60.3929C91.4609 60.4253 91.3956 60.4578 91.363 60.4902L83.7578 47.7367C83.8884 47.9314 84.2148 48.3858 84.6717 48.8076L84.737 48.8725C84.8676 49.0024 84.9981 49.0997 85.1287 49.1971C85.1613 49.2295 85.194 49.262 85.2593 49.2944C85.3246 49.3593 85.4225 49.3918 85.4877 49.4242C85.553 49.4567 85.5857 49.4891 85.6509 49.4891C85.7162 49.5216 85.7489 49.5216 85.8141 49.554C85.8794 49.554 85.9121 49.5865 85.9774 49.5865C86.0426 49.5865 86.0753 49.5865 86.1406 49.5865C86.3038 49.5865 86.4996 49.554 86.6628 49.4242C87.3482 49.0348 87.4788 48.256 87.4462 47.5745C87.4462 47.542 87.4462 47.542 87.4462 47.5096C87.4462 47.3798 87.4462 47.2824 87.4135 47.1526C87.4135 47.1202 87.4135 47.1202 87.4135 47.0877C87.4135 47.0228 87.3809 46.9904 87.3809 46.9579C87.3483 46.6658 87.283 46.4711 87.2503 46.4387C87.2503 46.4387 87.283 46.4711 87.283 46.5036L87.3156 46.536C87.3482 46.5685 87.3483 46.5685 87.3809 46.6009C87.4462 46.6658 87.5114 46.7307 87.6094 46.8281C87.642 46.8605 87.6746 46.893 87.7399 46.9255C87.8052 46.9579 87.8378 47.0228 87.9031 47.0553L87.9358 47.0877C88.0011 47.1526 88.0663 47.1851 88.1316 47.2175C88.1643 47.2175 88.1643 47.25 88.1969 47.25C88.2948 47.3149 88.4254 47.3798 88.5559 47.4447C88.6212 47.4771 88.6865 47.5096 88.7518 47.5096C88.8171 47.542 88.8823 47.542 88.9476 47.5745C89.0129 47.6069 89.0782 47.6069 89.1435 47.6069C89.3067 47.6394 89.5025 47.6394 89.6657 47.5745C89.731 47.5745 89.7636 47.542 89.8289 47.5096C89.8942 47.4771 89.9268 47.4447 89.9921 47.4447C90.1227 47.3473 90.2532 47.25 90.3185 47.1202C90.3512 47.0877 90.3512 47.0553 90.3838 47.0228C90.4164 46.9579 90.4491 46.893 90.4491 46.8281C90.4491 46.7956 90.4491 46.7956 90.4491 46.7956C90.4817 46.7307 90.4817 46.6658 90.4817 46.6334C90.4817 46.5685 90.5144 46.5036 90.5144 46.4387V46.4062C90.5144 46.2764 90.5144 46.1142 90.5144 45.9519C90.5144 45.887 90.5144 45.8221 90.5144 45.7896C90.4817 45.5949 90.4817 45.4002 90.4491 45.238C90.4491 45.1731 90.4164 45.1082 90.4164 45.0433C90.3838 44.9459 90.3838 44.881 90.3512 44.7836C90.3185 44.6863 90.3185 44.6214 90.2859 44.5565C90.188 44.1995 90.09 43.9399 90.0574 43.875L95.2798 52.6369C92.8971 51.6958 90.6449 50.8521 89.6331 50.7223C86.9566 50.3004 88.1316 56.304 91.82 58.0563C95.5083 59.7763 99.2293 61.3989 99.2293 61.3989L106.835 72.0105V72.043L107.944 73.9576Z" fill="#29BB80"/>
<path d="M110.75 78.6911C108.171 81.7415 104.418 82.423 104.418 82.423L101.578 77.6851C101.578 77.6851 105.332 77.0036 107.91 73.9531L110.75 78.6911Z" fill="#C7C7C7"/>
<path d="M114.307 84.6027C111.728 87.6532 107.974 88.3346 107.974 88.3346L104.449 82.396C104.449 82.396 108.203 81.7145 110.781 78.6641L114.307 84.6027Z" fill="white"/>
<path d="M90.5114 46.0174C90.5114 46.1796 90.5114 46.3094 90.5114 46.4717V46.5041C90.5114 46.569 90.5114 46.6339 90.4787 46.6988C90.4787 46.7313 90.4787 46.7313 90.4787 46.7637C90.4787 46.7962 90.4787 46.7962 90.4787 46.8286C90.4787 46.8611 90.4787 46.8611 90.4461 46.8936C90.4461 46.926 90.4461 46.926 90.4461 46.926C90.4135 46.9909 90.4135 47.0558 90.3808 47.1207C90.3482 47.1532 90.3482 47.1856 90.3155 47.2181C90.2503 47.3479 90.1197 47.4777 89.9891 47.5426C89.9239 47.575 89.8912 47.6075 89.8259 47.6075C89.7607 47.6399 89.728 47.6399 89.6627 47.6724C89.4995 47.7048 89.3363 47.7373 89.1405 47.7048C89.0752 47.7048 89.0099 47.6724 88.9446 47.6724C88.8794 47.6399 88.8141 47.6399 88.7488 47.6075C88.6835 47.575 88.6182 47.5426 88.553 47.5426C88.4224 47.4777 88.3245 47.4128 88.1939 47.3479C88.1613 47.3479 88.1613 47.3154 88.1286 47.3154C88.0634 47.283 87.9981 47.2181 87.9328 47.1856L87.9001 47.1532C87.8349 47.1207 87.8022 47.0558 87.7369 47.0234C87.7043 46.9909 87.639 46.9585 87.6064 46.926C87.5085 46.8286 87.4432 46.7637 87.3779 46.6988C87.3453 46.6664 87.3453 46.6664 87.3126 46.6339C87.3126 46.6015 87.28 46.6015 87.28 46.6015C87.2473 46.569 87.2473 46.569 87.2473 46.5366C87.2473 46.569 87.3126 46.7637 87.3779 47.0558C87.3779 47.0883 87.3779 47.1532 87.4105 47.1856C87.4105 47.2181 87.4105 47.2181 87.4105 47.2505C87.4432 47.3479 87.4432 47.4777 87.4432 47.6075C87.4432 47.6399 87.4432 47.6399 87.4432 47.6724C87.4758 48.3214 87.3126 49.1003 86.6598 49.5221C86.4966 49.6195 86.3008 49.6844 86.1376 49.6844C86.0723 49.6844 86.0397 49.6844 85.9744 49.6844C85.9091 49.6844 85.8764 49.6519 85.8112 49.6519C85.7459 49.6195 85.6806 49.6195 85.648 49.587C85.5827 49.5546 85.55 49.5546 85.4848 49.5221C85.4195 49.4897 85.3216 49.4248 85.2563 49.3923C85.2236 49.3599 85.1584 49.3274 85.1257 49.295C84.9952 49.1976 84.8646 49.1003 84.734 48.9705L84.6688 48.9056C84.2444 48.4837 83.8854 47.9969 83.7548 47.8347C83.7222 47.7697 83.6895 47.7373 83.6895 47.7373L82.4492 41.4741C83.1347 41.0847 84.1792 40.4032 84.6688 39.4297L90.0218 44.0378C90.0544 44.1027 90.1523 44.3623 90.2503 44.7193C90.2829 44.7842 90.2829 44.8816 90.3155 44.9465C90.3482 45.0114 90.3482 45.1087 90.3808 45.2061C90.4135 45.271 90.4135 45.3359 90.4135 45.4008C90.4461 45.5955 90.4787 45.7577 90.4787 45.9525C90.5114 45.8876 90.5114 45.9525 90.5114 46.0174Z" fill="white"/>
<path d="M84.6673 39.3341C84.1777 40.3401 83.1659 41.0216 82.4478 41.3786L82.0234 39.1394L83.0353 37.9062L84.6673 39.3341Z" fill="#081C0D"/>
<path d="M119.138 132.503C119.04 132.503 118.942 132.438 118.91 132.308L111.076 102.939C110.423 102.258 102.916 94.2749 99.2928 88.5634C98.64 87.5249 98.0525 86.5838 97.5302 85.7725C94.9843 81.8134 93.9398 80.1909 93.6787 78.5034C93.3849 76.751 91.3286 64.03 90.8716 61.3365C90.8063 60.9795 90.9369 60.5901 91.198 60.3305C91.2307 60.298 91.2959 60.2331 91.3612 60.2007C91.8508 59.8113 92.6668 59.4219 93.7113 59.6166C94.9843 59.8762 96.2246 61.012 97.3997 63.024C100.272 67.9242 100.762 74.0251 100.827 75.8748L108.106 88.0766C108.824 87.9144 111.827 87.0706 114.014 84.6043L106.637 72.2402L99.097 61.661C98.5747 61.4338 95.1149 59.9411 91.7203 58.3509C88.8479 57.0204 87.5097 53.3209 88.0645 51.601C88.293 50.8222 88.8805 50.4652 89.6966 50.5626C90.6105 50.6924 92.5363 51.3414 95.4086 52.5097C98.8685 53.8726 102.687 55.5601 103.471 55.9171C105.07 54.5866 107.518 55.1707 108.008 55.3005C108.432 55.1058 110.227 54.2945 112.088 54.5541C114.307 54.8786 123.479 63.6406 124.883 66.3989C126.319 69.2222 129.518 94.4047 129.746 95.9948L148.449 132.178C148.514 132.308 148.449 132.438 148.351 132.503C148.221 132.568 148.09 132.503 148.025 132.405L129.289 96.1895C129.289 96.1571 129.257 96.1246 129.257 96.1246C129.224 95.865 125.862 69.4169 124.459 66.6586C123.022 63.8028 113.948 55.3654 112.023 55.0733C110.129 54.8137 108.171 55.7873 108.171 55.8197C108.106 55.8522 108.04 55.8522 107.975 55.8522C107.943 55.8522 105.233 55.0409 103.667 56.4363C103.601 56.5012 103.503 56.5337 103.405 56.4688C103.373 56.4363 99.097 54.5541 95.2454 53.0289C92.4383 51.8931 90.5126 51.244 89.6313 51.1142C89.0764 51.0169 88.7173 51.2765 88.5541 51.7957C88.0645 53.3859 89.4028 56.7608 91.9487 57.9615C95.5718 59.6815 99.3255 61.2716 99.3581 61.304C99.3907 61.3365 99.4234 61.3365 99.456 61.4014L107.061 72.0131L107.094 72.0455L114.568 84.5718C114.634 84.6692 114.601 84.7665 114.536 84.8639C111.925 87.9468 108.204 88.6607 108.073 88.6932C107.975 88.7256 107.877 88.6607 107.812 88.5634L100.403 76.1669C100.37 76.1344 100.37 76.102 100.37 76.0695C100.305 74.3171 99.8151 68.2487 97.008 63.3809C95.9309 61.4987 94.7885 60.4603 93.646 60.2331C92.7974 60.0709 92.1119 60.3954 91.6876 60.7199C91.655 60.7524 91.6223 60.7524 91.6223 60.7848C91.4591 60.9471 91.3939 61.1742 91.4265 61.4014C91.8835 64.1273 93.9398 76.8159 94.2336 78.5683C94.4947 80.126 95.5392 81.7485 98.0198 85.6427C98.5421 86.454 99.1296 87.3951 99.7824 88.4336C103.536 94.3398 111.468 102.68 111.533 102.777C111.566 102.81 111.566 102.842 111.598 102.875L119.465 132.308C119.497 132.438 119.432 132.568 119.301 132.6C119.203 132.503 119.171 132.503 119.138 132.503Z" fill="#DCABA1"/>
<path d="M104.415 82.6567C104.317 82.6567 104.251 82.6243 104.219 82.5269L100.367 76.0366C100.335 76.0042 100.335 75.9717 100.335 75.9393C100.269 74.1869 99.7796 68.1184 96.9726 63.2507C95.8954 61.3685 94.753 60.33 93.6106 60.1029C92.762 59.9406 92.0765 60.2651 91.6522 60.5897C91.6196 60.6221 91.5869 60.6221 91.5869 60.6546C91.5216 60.7195 91.4564 60.7519 91.3911 60.7519C91.3258 60.7519 91.2279 60.687 91.1952 60.6221L83.5574 47.8686C83.4921 47.7713 83.5248 47.609 83.6227 47.5441C83.7206 47.4792 83.8838 47.5117 83.9491 47.609C84.1123 47.8362 84.406 48.2581 84.8304 48.6475L84.8957 48.7124C85.0262 48.8422 85.1241 48.9395 85.2547 49.0044C85.2873 49.0369 85.32 49.0693 85.3526 49.0693L85.3853 49.1018C85.4505 49.1342 85.5158 49.1991 85.5811 49.2316C85.6464 49.264 85.679 49.2965 85.7443 49.2965C85.7769 49.329 85.8422 49.329 85.9075 49.3614C85.9401 49.3614 85.9728 49.3939 86.0381 49.3939C86.0381 49.3939 86.0381 49.3939 86.0707 49.3939C86.2666 49.4263 86.4297 49.3939 86.6256 49.2965C87.1152 49.0044 87.3437 48.4852 87.311 47.6739V47.609C87.311 47.5117 87.311 47.3819 87.2784 47.2845V47.2521V47.2196C87.2784 47.1871 87.2784 47.1222 87.2458 47.1222C87.2458 47.1222 87.2458 47.1222 87.2458 47.0898C87.2131 46.8951 87.1805 46.7328 87.1478 46.6355C87.1478 46.603 87.1478 46.603 87.1478 46.5706C87.1152 46.4732 87.1805 46.3434 87.2784 46.311C87.3763 46.2461 87.5069 46.2785 87.5722 46.3434C87.5722 46.3434 87.6048 46.3759 87.6374 46.4083C87.6374 46.4083 87.6374 46.4083 87.6701 46.4408C87.7027 46.4732 87.7027 46.5057 87.7354 46.5057C87.768 46.5381 87.8659 46.6355 87.9312 46.7004C87.9638 46.7653 87.9965 46.7653 88.0291 46.7977L88.0618 46.8302C88.0944 46.8626 88.127 46.8951 88.1597 46.8951L88.1923 46.9275C88.2576 46.9924 88.3229 47.0249 88.3882 47.0573L88.4534 47.1222C88.5514 47.1871 88.6493 47.2521 88.7472 47.2845H88.7799C88.8125 47.317 88.8778 47.317 88.9104 47.3494C88.9757 47.3819 89.041 47.3819 89.0736 47.4143C89.1389 47.4468 89.1715 47.4468 89.2042 47.4468C89.3674 47.4792 89.4979 47.4792 89.6285 47.4143C89.6611 47.4143 89.7264 47.3819 89.7591 47.3819C89.7917 47.3494 89.857 47.3494 89.8896 47.317C89.9875 47.252 90.0528 47.1871 90.1181 47.0898C90.1507 47.0573 90.1508 47.0573 90.1508 47.0249C90.1508 47.0249 90.1508 47.0249 90.1508 46.9924C90.1834 46.9275 90.1834 46.8951 90.216 46.8302C90.216 46.8302 90.216 46.7653 90.2487 46.7653C90.2487 46.7653 90.2487 46.7328 90.2487 46.7004V46.6679V46.6355V46.603C90.2487 46.5706 90.2487 46.5057 90.2813 46.4408V46.4083C90.2813 46.2785 90.2813 46.1487 90.2813 45.9864V45.8242C90.2487 45.6295 90.2487 45.4672 90.216 45.305C90.216 45.2401 90.1834 45.1751 90.1834 45.1427C90.1507 45.0453 90.1507 44.9804 90.1181 44.8831C90.0855 44.7857 90.0855 44.7208 90.0528 44.6559C89.9549 44.3314 89.857 44.0718 89.857 44.0069C89.8243 43.8771 89.857 43.7473 89.9875 43.6824C90.1181 43.6175 90.2487 43.6824 90.314 43.7797L95.5364 52.5417C95.6017 52.639 95.569 52.7364 95.5038 52.8337C95.4385 52.8986 95.3079 52.9311 95.2426 52.8986C92.4356 51.7628 90.5098 51.1138 89.6285 50.984C89.0736 50.8866 88.7146 51.1462 88.5514 51.6655C88.0618 53.2556 89.4 56.6306 91.946 57.8313C95.569 59.5512 99.3227 61.1413 99.3553 61.1738C99.388 61.2062 99.4206 61.2062 99.4532 61.2711L107.058 71.8828L107.091 71.9153L111.041 78.5354C111.106 78.6327 111.073 78.7301 111.008 78.8275C108.397 81.9104 104.676 82.6243 104.545 82.6567C104.447 82.6567 104.447 82.6567 104.415 82.6567ZM100.791 75.8744L104.545 82.1375C105.263 81.9753 108.266 81.1315 110.453 78.6652L106.601 72.2073L99.0616 61.6281C98.5393 61.4009 95.0794 59.9082 91.6848 58.318C88.8125 56.9875 87.4742 53.288 88.0291 51.5681C88.2576 50.7893 88.8451 50.4323 89.6611 50.5297C90.5098 50.6595 92.2071 51.2111 94.7204 52.2171L90.7383 45.5321C90.7383 45.6295 90.7709 45.7268 90.7709 45.8242V45.9864C90.7709 46.1811 90.7709 46.311 90.7709 46.4732C90.7709 46.4732 90.7709 46.5057 90.7709 46.5381C90.7709 46.603 90.7709 46.6679 90.7383 46.7328V46.7653C90.7383 46.7977 90.7383 46.8302 90.7056 46.8626C90.7056 46.8951 90.7056 46.8951 90.673 46.9275C90.673 46.9275 90.673 46.9275 90.673 46.96C90.6403 47.0573 90.6077 47.1222 90.5751 47.1871V47.2196C90.5424 47.2521 90.5424 47.317 90.5098 47.3494C90.4119 47.5117 90.2813 47.6415 90.1181 47.7388C90.0528 47.7713 89.9875 47.8037 89.9223 47.8362C89.857 47.8686 89.7917 47.8686 89.7264 47.9011C89.5306 47.966 89.3347 47.966 89.1063 47.9335C89.041 47.9335 88.943 47.9011 88.8778 47.8686C88.8125 47.8686 88.7472 47.8362 88.6819 47.8037C88.6493 47.8037 88.584 47.7713 88.5187 47.7388C88.3882 47.6739 88.2576 47.609 88.127 47.5117L88.0618 47.4468C87.9965 47.4143 87.9312 47.3494 87.8659 47.317L87.8333 47.2845C87.8006 47.2521 87.768 47.2196 87.7354 47.1871C87.7354 47.2845 87.768 47.3819 87.768 47.5117C87.768 47.5441 87.768 47.5766 87.768 47.609C87.8006 48.5826 87.4742 49.2965 86.8541 49.6535C86.593 49.8157 86.2992 49.8482 86.0054 49.8157H85.9728C85.9075 49.8157 85.8422 49.7833 85.7769 49.7833C85.7117 49.7508 85.6464 49.7508 85.5811 49.7184C85.5158 49.6859 85.4505 49.6535 85.3853 49.621C85.32 49.5886 85.2221 49.5561 85.1241 49.4588H85.0915L91.4237 60.1029C91.9133 59.7459 92.6967 59.3889 93.6759 59.5837C94.9489 59.8433 96.1892 60.9791 97.3643 62.9911C100.237 67.9237 100.726 74.0246 100.791 75.8744Z" fill="#081C0D"/>
<path d="M107.972 88.5948C107.874 88.5948 107.809 88.5624 107.776 88.465L104.251 82.5264C104.218 82.4615 104.218 82.3641 104.251 82.2992C104.284 82.2343 104.349 82.1694 104.414 82.1694C104.447 82.1694 108.135 81.4555 110.616 78.5349C110.681 78.4699 110.746 78.4375 110.812 78.4375C110.877 78.4375 110.975 78.5024 111.008 78.5673L114.533 84.5059C114.598 84.6033 114.565 84.7007 114.5 84.798C111.889 87.8809 108.168 88.5948 108.037 88.6273C107.972 88.5948 107.972 88.5948 107.972 88.5948ZM104.806 82.5913L108.07 88.0756C108.788 87.9134 111.791 87.0696 113.978 84.6033L110.714 79.119C108.56 81.4879 105.785 82.3317 104.806 82.5913Z" fill="#081C0D"/>
<path d="M86.1394 49.8424C86.0741 49.8424 86.0089 49.8424 85.9436 49.8424H85.911C85.8457 49.8424 85.7804 49.81 85.7151 49.81C85.6498 49.7775 85.5845 49.7775 85.5193 49.7451C85.454 49.7126 85.3887 49.6802 85.3234 49.6477C85.2581 49.6153 85.1602 49.5828 85.0623 49.4855L85.0297 49.453C84.997 49.4206 84.9644 49.3881 84.8991 49.3557C84.8012 49.2907 84.6706 49.1934 84.5074 49.0311L84.4421 48.9662C84.0178 48.5444 83.6914 48.09 83.5282 47.8629C83.4956 47.798 83.4629 47.798 83.4629 47.7655C83.4303 47.7331 83.4303 47.7006 83.4303 47.6682L81.7656 39.1658C81.7656 39.1009 81.7656 39.036 81.8309 38.9711L82.8428 37.738C82.8754 37.6731 82.9407 37.6406 83.006 37.6406C83.0712 37.6406 83.1365 37.6406 83.2018 37.7055L90.1868 43.7091C90.2195 43.7415 90.2521 43.774 90.2521 43.8389C90.2848 43.9687 90.3827 44.1958 90.4806 44.5204C90.5132 44.5853 90.5132 44.6826 90.5459 44.78C90.5785 44.8773 90.5785 44.9422 90.6112 45.0396C90.6112 45.1045 90.6438 45.1694 90.6438 45.2343C90.6764 45.3966 90.7091 45.5913 90.7417 45.8184V45.9807C90.7417 46.1429 90.7417 46.3052 90.7417 46.4675C90.7417 46.4675 90.7417 46.4999 90.7417 46.5324C90.7417 46.5973 90.7417 46.6622 90.7091 46.7271V46.7595C90.7091 46.792 90.7091 46.8244 90.6764 46.8569C90.6764 46.8893 90.6764 46.8893 90.6438 46.9218C90.6438 46.9218 90.6438 46.9218 90.6438 46.9542C90.6112 47.0516 90.5785 47.1165 90.5459 47.1814V47.2138C90.5132 47.2463 90.5132 47.3112 90.4806 47.3437C90.3827 47.5059 90.2521 47.6357 90.0889 47.7331C90.0236 47.7655 89.9583 47.798 89.8931 47.8304C89.8278 47.8629 89.7625 47.8629 89.6972 47.8953C89.5014 47.9602 89.3055 47.9602 89.0771 47.9278C89.0118 47.9278 88.9465 47.8953 88.8486 47.8953C88.7833 47.8629 88.6854 47.8629 88.6201 47.8304C88.5875 47.8304 88.5222 47.798 88.4569 47.7655C88.3263 47.7006 88.1958 47.6357 88.0652 47.5384L87.9999 47.4735C87.9346 47.441 87.8694 47.3761 87.8041 47.3437L87.7714 47.3112C87.7388 47.2787 87.7062 47.2463 87.6735 47.2138C87.6735 47.3112 87.7062 47.4086 87.7062 47.5384C87.7062 47.5708 87.7062 47.6033 87.7062 47.6357C87.7388 48.6093 87.4124 49.3232 86.7922 49.6802C86.5964 49.7775 86.3679 49.8424 86.1394 49.8424ZM86.0089 49.3557C86.2047 49.3881 86.4006 49.3556 86.5638 49.2583C87.0534 48.9662 87.2818 48.447 87.2492 47.6357V47.5708C87.2492 47.4735 87.2492 47.3437 87.2166 47.2463V47.2138V47.1814C87.2166 47.1489 87.2166 47.084 87.1839 47.084C87.1839 47.084 87.1839 47.084 87.1839 47.0516C87.1513 46.8569 87.1186 46.6946 87.086 46.5973C87.086 46.5648 87.086 46.5648 87.086 46.5324C87.0534 46.435 87.1186 46.3052 87.2166 46.2727C87.3145 46.2078 87.445 46.2403 87.5103 46.3052C87.5103 46.3052 87.543 46.3377 87.5756 46.3701C87.5756 46.3701 87.5756 46.3701 87.6082 46.4026C87.6409 46.435 87.6409 46.4675 87.6735 46.4675C87.7062 46.4999 87.8041 46.5973 87.8694 46.6622C87.902 46.6946 87.9346 46.7271 87.9673 46.7595L87.9999 46.792C88.0326 46.8244 88.0652 46.8569 88.0978 46.8569L88.1305 46.8893C88.1958 46.9542 88.2611 46.9867 88.3263 47.0191L88.3916 47.084C88.4895 47.1489 88.5875 47.2138 88.6854 47.2463H88.718C88.7507 47.2787 88.8159 47.2787 88.8486 47.3112C88.9139 47.3437 88.9791 47.3437 89.0118 47.3761C89.0771 47.3761 89.1097 47.4086 89.175 47.4086C89.3382 47.441 89.4687 47.4086 89.5993 47.3761C89.6319 47.3761 89.6972 47.3437 89.7299 47.3437C89.7625 47.3112 89.8278 47.3112 89.8604 47.2787C89.9583 47.2138 90.0236 47.1489 90.0889 47.0516C90.1215 47.0191 90.1216 47.0191 90.1216 46.9867C90.1216 46.9867 90.1216 46.9867 90.1216 46.9542C90.1542 46.8893 90.1542 46.8569 90.1868 46.792C90.1868 46.792 90.1868 46.7271 90.2195 46.7271C90.2195 46.7271 90.2195 46.6946 90.2195 46.6622V46.6297V46.5973V46.5648C90.2195 46.5324 90.2195 46.4675 90.2521 46.4026V46.3701C90.2521 46.2403 90.2521 46.1105 90.2521 45.9482V45.786C90.2195 45.5913 90.2195 45.429 90.1868 45.2668C90.1868 45.2018 90.1542 45.1369 90.1542 45.1045C90.1216 45.0071 90.1215 44.9422 90.0889 44.8449C90.0563 44.7475 90.0563 44.6826 90.0236 44.6177C89.9583 44.3257 89.8604 44.1309 89.8278 44.0336L83.0712 38.2572L82.2879 39.1983L83.9199 47.5384C83.9199 47.5384 83.9525 47.5708 83.9525 47.6033C84.1157 47.8304 84.4095 48.2523 84.8012 48.6417L84.8665 48.7066C84.997 48.8364 85.0949 48.9338 85.2255 48.9987C85.2581 49.0311 85.2908 49.0636 85.3234 49.0636L85.3561 49.096C85.4213 49.1285 85.4866 49.1934 85.5519 49.2258C85.6172 49.2583 85.6498 49.2907 85.7151 49.2907C85.7477 49.3232 85.813 49.3232 85.8783 49.3557C85.9109 49.3232 85.9436 49.3557 86.0089 49.3557Z" fill="#081C0D"/>
<path d="M89.6312 51.0165C89.5332 51.0165 89.4679 50.9516 89.4027 50.8867L87.4442 46.96C87.379 46.8302 87.4443 46.7004 87.5422 46.6355C87.6727 46.5706 87.8033 46.6355 87.8686 46.7329L89.827 50.6595C89.8923 50.7893 89.827 50.9191 89.7291 50.984C89.6964 51.0165 89.6638 51.0165 89.6312 51.0165Z" fill="#081C0D"/>
<path d="M105.328 76.3883C105.23 76.3883 105.164 76.3558 105.132 76.2584L100.268 68.4052C100.203 68.2754 100.236 68.1455 100.334 68.0806C100.464 68.0157 100.595 68.0482 100.66 68.1455L105.523 75.9988C105.589 76.1286 105.556 76.2584 105.458 76.3233C105.426 76.3883 105.36 76.3883 105.328 76.3883Z" fill="#081C0D"/>
<path d="M114.306 68.5719C114.241 68.5719 114.176 68.5394 114.111 68.4745L103.274 56.3376C103.176 56.2403 103.209 56.078 103.307 55.9807C103.405 55.8833 103.568 55.9158 103.666 56.0131L114.502 68.15C114.6 68.2474 114.568 68.4096 114.47 68.507C114.404 68.5394 114.339 68.5719 114.306 68.5719Z" fill="#DCABA1"/>
<path d="M118.159 64.9646C118.093 64.9646 118.028 64.9322 117.996 64.8997L107.812 55.7159C107.714 55.6186 107.714 55.4563 107.812 55.3589C107.91 55.2616 108.073 55.2616 108.171 55.3265L118.355 64.5103C118.452 64.6076 118.452 64.7699 118.355 64.8673C118.289 64.9322 118.224 64.9646 118.159 64.9646Z" fill="#DCABA1"/>
<path d="M111.305 103.068C111.207 103.068 111.077 103.003 111.077 102.873C111.044 102.744 111.142 102.614 111.272 102.581C111.305 102.581 114.243 101.965 116.038 101.283C116.169 101.218 116.299 101.283 116.364 101.413C116.43 101.543 116.364 101.673 116.234 101.738C114.439 102.452 111.534 103.036 111.403 103.068C111.338 103.068 111.305 103.068 111.305 103.068Z" fill="#DCABA1"/>
<path d="M34.2074 34.5661C34.8203 34.5661 35.3172 34.0721 35.3172 33.4627C35.3172 32.8534 34.8203 32.3594 34.2074 32.3594C33.5945 32.3594 33.0977 32.8534 33.0977 33.4627C33.0977 34.0721 33.5945 34.5661 34.2074 34.5661Z" fill="#E0E0E0"/>
<path d="M39.5941 34.5661C38.974 34.5661 38.4844 34.0793 38.4844 33.4627C38.4844 32.8461 38.974 32.3594 39.5941 32.3594C40.2143 32.3594 40.7039 32.8461 40.7039 33.4627C40.7366 34.0469 40.2143 34.5661 39.5941 34.5661Z" fill="#E0E0E0"/>
<path d="M34.2074 39.9098C34.8203 39.9098 35.3172 39.4158 35.3172 38.8065C35.3172 38.1971 34.8203 37.7031 34.2074 37.7031C33.5945 37.7031 33.0977 38.1971 33.0977 38.8065C33.0977 39.4158 33.5945 39.9098 34.2074 39.9098Z" fill="#E0E0E0"/>
<path d="M34.2074 45.238C34.8203 45.238 35.3172 44.744 35.3172 44.1346C35.3172 43.5252 34.8203 43.0312 34.2074 43.0312C33.5945 43.0312 33.0977 43.5252 33.0977 44.1346C33.0977 44.744 33.5945 45.238 34.2074 45.238Z" fill="#E0E0E0"/>
<path d="M34.2074 50.5973C34.8203 50.5973 35.3172 50.1033 35.3172 49.494C35.3172 48.8846 34.8203 48.3906 34.2074 48.3906C33.5945 48.3906 33.0977 48.8846 33.0977 49.494C33.0977 50.1033 33.5945 50.5973 34.2074 50.5973Z" fill="#E0E0E0"/>
<path d="M33.0977 54.8377C33.0977 54.2211 33.5873 53.7344 34.2074 53.7344C34.8276 53.7344 35.3172 54.2211 35.3172 54.8377C35.3172 55.4543 34.8276 55.9411 34.2074 55.9411C33.6199 55.9411 33.0977 55.4543 33.0977 54.8377Z" fill="#E0E0E0"/>
<path d="M39.5941 39.9098C38.974 39.9098 38.4844 39.4231 38.4844 38.8065C38.4844 38.1899 38.974 37.7031 39.5941 37.7031C40.2143 37.7031 40.7039 38.1899 40.7039 38.8065C40.7039 39.4231 40.2143 39.9098 39.5941 39.9098Z" fill="#E0E0E0"/>
<path d="M38.4844 44.1346C38.4844 43.518 38.974 43.0312 39.5941 43.0312C40.2143 43.0312 40.7039 43.518 40.7039 44.1346C40.7039 44.7512 40.2143 45.238 39.5941 45.238C39.0066 45.2704 38.4844 44.7512 38.4844 44.1346Z" fill="#E0E0E0"/>
<path d="M38.4844 49.494C38.4844 48.8774 38.974 48.3906 39.5941 48.3906C40.2143 48.3906 40.7039 48.8774 40.7039 49.494C40.7039 50.1106 40.2143 50.5973 39.5941 50.5973C39.0066 50.6298 38.4844 50.1106 38.4844 49.494Z" fill="#E0E0E0"/>
<path d="M38.4844 54.8377C38.4844 54.2211 38.974 53.7344 39.5941 53.7344C40.2143 53.7344 40.7039 54.2211 40.7039 54.8377C40.7039 55.4543 40.2143 55.9411 39.5941 55.9411C39.0066 55.9411 38.4844 55.4543 38.4844 54.8377Z" fill="#E0E0E0"/>
<path d="M34.2074 61.3005C34.8203 61.3005 35.3172 60.8065 35.3172 60.1971C35.3172 59.5877 34.8203 59.0938 34.2074 59.0938C33.5945 59.0938 33.0977 59.5877 33.0977 60.1971C33.0977 60.8065 33.5945 61.3005 34.2074 61.3005Z" fill="#E0E0E0"/>
<path d="M38.4844 60.1971C38.4844 59.5805 38.974 59.0938 39.5941 59.0938C40.2143 59.0938 40.7039 59.5805 40.7039 60.1971C40.7039 60.8137 40.2143 61.3005 39.5941 61.3005C39.0066 61.3005 38.4844 60.8137 38.4844 60.1971Z" fill="#E0E0E0"/>
<path d="M116.625 34.5973C116.005 34.5973 115.516 34.1106 115.516 33.494C115.516 32.8774 116.005 32.3906 116.625 32.3906C117.246 32.3906 117.735 32.8774 117.735 33.494C117.735 34.1106 117.246 34.5973 116.625 34.5973Z" fill="#E0E0E0"/>
<path d="M122.008 34.5973C121.388 34.5973 120.898 34.1106 120.898 33.494C120.898 32.8774 121.388 32.3906 122.008 32.3906C122.628 32.3906 123.118 32.8774 123.118 33.494C123.118 34.1106 122.628 34.5973 122.008 34.5973Z" fill="#E0E0E0"/>
<path d="M116.625 39.9489C117.238 39.9489 117.735 39.4549 117.735 38.8455C117.735 38.2362 117.238 37.7422 116.625 37.7422C116.012 37.7422 115.516 38.2362 115.516 38.8455C115.516 39.4549 116.012 39.9489 116.625 39.9489Z" fill="#E0E0E0"/>
<path d="M116.625 45.3005C117.238 45.3005 117.735 44.8065 117.735 44.1971C117.735 43.5877 117.238 43.0938 116.625 43.0938C116.012 43.0938 115.516 43.5877 115.516 44.1971C115.516 44.8065 116.012 45.3005 116.625 45.3005Z" fill="#E0E0E0"/>
<path d="M116.625 50.6598C117.238 50.6598 117.735 50.1658 117.735 49.5565C117.735 48.9471 117.238 48.4531 116.625 48.4531C116.012 48.4531 115.516 48.9471 115.516 49.5565C115.516 50.1658 116.012 50.6598 116.625 50.6598Z" fill="#E0E0E0"/>
<path d="M122.008 39.9489C122.621 39.9489 123.118 39.4549 123.118 38.8455C123.118 38.2362 122.621 37.7422 122.008 37.7422C121.395 37.7422 120.898 38.2362 120.898 38.8455C120.898 39.4549 121.395 39.9489 122.008 39.9489Z" fill="#E0E0E0"/>
<path d="M122.008 45.3005C122.621 45.3005 123.118 44.8065 123.118 44.1971C123.118 43.5877 122.621 43.0938 122.008 43.0938C121.395 43.0938 120.898 43.5877 120.898 44.1971C120.898 44.8065 121.395 45.3005 122.008 45.3005Z" fill="#E0E0E0"/>
<path d="M122.008 50.6598C122.621 50.6598 123.118 50.1658 123.118 49.5565C123.118 48.9471 122.621 48.4531 122.008 48.4531C121.395 48.4531 120.898 48.9471 120.898 49.5565C120.898 50.1658 121.395 50.6598 122.008 50.6598Z" fill="#E0E0E0"/>
<path d="M111.075 34.4255C111.688 34.4255 112.184 33.9315 112.184 33.3221C112.184 32.7127 111.688 32.2188 111.075 32.2188C110.462 32.2188 109.965 32.7127 109.965 33.3221C109.965 33.9315 110.462 34.4255 111.075 34.4255Z" fill="#E0E0E0"/>
<path d="M111.075 39.7536C111.688 39.7536 112.184 39.2596 112.184 38.6502C112.184 38.0409 111.688 37.5469 111.075 37.5469C110.462 37.5469 109.965 38.0409 109.965 38.6502C109.965 39.2596 110.462 39.7536 111.075 39.7536Z" fill="#E0E0E0"/>
<path d="M111.075 45.113C111.688 45.113 112.184 44.619 112.184 44.0096C112.184 43.4002 111.688 42.9062 111.075 42.9062C110.462 42.9062 109.965 43.4002 109.965 44.0096C109.965 44.619 110.462 45.113 111.075 45.113Z" fill="#E0E0E0"/>
<path d="M109.965 49.3534C109.965 48.7368 110.454 48.25 111.075 48.25C111.695 48.25 112.184 48.7368 112.184 49.3534C112.184 49.9699 111.695 50.4567 111.075 50.4567C110.454 50.4567 109.965 49.9699 109.965 49.3534Z" fill="#E0E0E0"/>
<circle cx="141.5" cy="21" r="3" stroke="#25AB75" stroke-opacity="0.2"/>
</g>
<defs>
<filter id="filter0_d_34_14476" x="15.1016" y="-25.0391" width="125.815" height="133.573" filterUnits="userSpaceOnUse" color-interpolation-filters="sRGB">
<feFlood flood-opacity="0" result="BackgroundImageFix"/>
<feColorMatrix in="SourceAlpha" type="matrix" values="0 0 0 0 0 0 0 0 0 0 0 0 0 0 0 0 0 0 127 0" result="hardAlpha"/>
<feOffset dy="4"/>
<feGaussianBlur stdDeviation="17.5"/>
<feComposite in2="hardAlpha" operator="out"/>
<feColorMatrix type="matrix" values="0 0 0 0 0 0 0 0 0 0 0 0 0 0 0 0 0 0 0.12 0"/>
<feBlend mode="normal" in2="BackgroundImageFix" result="effect1_dropShadow_34_14476"/>
<feBlend mode="normal" in="SourceGraphic" in2="effect1_dropShadow_34_14476" result="shape"/>
</filter>
<clipPath id="clip0_34_14476">
<rect width="157" height="140" fill="white" transform="translate(0 0.5)"/>
</clipPath>
</defs>
</svg>
