<svg width="136" height="11" viewBox="0 0 136 11" fill="none" xmlns="http://www.w3.org/2000/svg">
<path d="M8.536 4.06646C7.45138 0.905728 5.07328 0.460306 0 1.01645V10.4861C2.44605 10.3451 4.85434 10.9315 7.02861 9.53735C8.63162 8.01235 8.64672 6.05702 8.536 4.06646ZM6.30637 7.57196C5.34255 9.36874 3.53821 8.83021 1.80434 8.97114V2.4106C3.32431 2.40808 4.95249 1.96266 6.06982 3.35932C7.08649 4.63016 7.04874 6.18788 6.30637 7.57196Z" fill="#006849"/>
<path d="M10.7656 10.3071V1.07652C11.2035 0.688979 11.7219 0.83242 12.3863 0.988444V10.2442C11.8377 10.5587 11.3595 10.5084 10.7656 10.3071Z" fill="#006849"/>
<path d="M14.9336 10.302V1.08656C15.3689 0.716629 15.8169 0.839937 16.3705 0.945631C17.9257 2.94122 19.5237 4.99218 21.4161 7.41809V1.25264C22.0578 0.714112 22.5662 0.777025 23.1651 0.998477V10.3347C22.2315 10.6644 21.6527 10.4077 21.1318 9.7056C19.7552 7.85093 18.3183 6.03653 16.6046 3.81445V10.1435C15.9704 10.5889 15.5048 10.5335 14.9336 10.302Z" fill="#006849"/>
<path d="M32.4273 10.3257C31.0885 7.33612 29.7094 4.25843 28.3203 1.16061C28.9318 0.639695 29.5081 0.911478 30.1448 0.87373C31.1589 3.19898 32.1605 5.48649 33.2904 8.07849C34.4077 5.51165 35.3917 3.24931 36.4184 0.891345H38.3083C36.8639 4.14267 35.4848 7.24553 34.136 10.283C33.5622 10.5497 33.0765 10.5271 32.4273 10.3257Z" fill="#006849"/>
<path d="M39.4766 10.3336V0.921875H41.1475V10.2632C40.6191 10.5727 40.1007 10.5098 39.4766 10.3336Z" fill="#006849"/>
<path d="M43.5859 10.3279V0.90362C44.0565 0.878455 44.4566 0.855807 44.9323 0.828125C46.568 2.91179 48.1987 4.99295 50.1616 7.49687V1.20308C50.758 0.672102 51.2437 0.870906 51.8174 0.906137V10.2877C51.3217 10.5519 50.8838 10.5016 50.31 10.3204C48.7674 8.33235 47.1644 6.26127 45.2519 3.79006V10.109C44.6831 10.5947 44.2 10.489 43.5859 10.3279Z" fill="#006849"/>
<path d="M53.5377 2.33138C53.193 1.88596 53.2282 1.46067 53.4522 0.929688H61.5478C61.8196 1.41034 61.8045 1.79788 61.5503 2.32383C60.599 2.36913 59.5849 2.41694 58.4449 2.46979V10.1426C57.8284 10.6006 57.315 10.5226 56.6255 10.2835V2.47482C55.4805 2.42198 54.499 2.37668 53.5377 2.33138Z" fill="#006849"/>
<path d="M68.0108 0.898438H66.3826C64.9608 4.04407 63.5616 7.13938 62.1523 10.2548C62.8721 10.5442 63.3477 10.5543 63.9089 10.3102C64.2134 9.7037 64.538 9.04941 64.8349 8.45551H69.5635C69.9007 9.14 70.2077 9.7641 70.555 10.4687C71.1161 10.363 71.7025 10.743 72.236 10.1466C70.8267 7.06388 69.42 3.98619 68.0108 0.898438ZM65.7761 6.80971C65.7761 5.85596 66.2064 4.68578 67.2659 2.91919C67.8522 4.27559 68.3656 5.46338 68.9469 6.80971H65.7761Z" fill="#006849"/>
<path d="M74.3451 8.95608C72.805 7.08128 72.9811 3.66638 74.7049 1.97277C76.4036 0.30684 79.7883 0.218762 81.6329 1.83688C81.6102 2.35276 81.4341 2.70507 81.0641 2.99699C79.2497 2.29488 77.312 1.54496 75.8499 3.46254C74.8157 4.81642 74.861 6.51507 75.8449 7.89663C76.932 9.42415 78.5728 9.16495 80.2287 8.76231V6.64089C79.5719 6.59559 78.9629 6.55533 78.3488 6.51507C77.9865 6.10236 78.0544 5.68965 78.3362 5.19642H81.7637V9.76891C79.6473 11.2436 75.8952 10.8435 74.3451 8.95608Z" fill="#006849"/>
<path d="M90.5114 10.4057H84.2227V0.96875H90.6146C90.6372 1.35629 90.6599 1.74383 90.6901 2.28992H86.173C85.7149 3.13043 85.8961 3.8577 85.9716 4.77119H89.9804C90.519 5.31224 90.373 5.70985 90.29 6.29368H86.1226C85.7502 7.22731 85.871 7.99484 85.9817 8.96621H90.4233C90.7631 9.55004 90.7404 9.93507 90.5114 10.4057Z" fill="#006849"/>
<path d="M101.886 7.28912C101.297 6.71032 100.527 6.57191 99.7217 6.53165C98.8711 6.56436 98.0532 6.49893 97.4442 5.79935C95.5367 3.95475 96.1457 1.62194 98.7251 0.897187C100.436 0.414018 102.004 0.690834 103.406 1.64459C103.539 2.28127 103.288 2.63358 102.877 2.98841C101.763 2.42722 100.595 2.02458 99.3065 2.38193C98.6975 2.55053 98.2193 2.84748 98.1891 3.54204C98.1589 4.26931 98.6673 4.54109 99.2763 4.69208C100.205 4.9236 101.151 5.09976 102.067 5.37909C103.104 5.69617 103.793 6.36304 103.859 7.51309C103.929 8.73611 103.361 9.6345 102.289 10.1126C100.235 11.0236 98.242 10.6965 96.3647 9.72007C96.2112 9.09849 96.3571 8.7034 96.7472 8.39135C101.234 9.37027 102.047 9.20166 101.886 7.28912Z" fill="#006849"/>
<path d="M105.762 10.3375V1.00878C106.278 0.716865 106.786 0.840174 107.448 0.953416V4.66527H112.383V1.11951C113.027 0.726931 113.535 0.782294 114.142 1.03394V10.3022C113.525 10.5187 113.047 10.5514 112.443 10.2569V6.48973H107.543V10.1588C106.854 10.564 106.371 10.5061 105.762 10.3375Z" fill="#006849"/>
<path d="M120.997 0.664253C118.113 0.641604 116.226 2.64223 116.238 5.71237C116.251 8.71456 118.116 10.6347 120.997 10.612C123.828 10.5894 125.668 8.60132 125.655 5.58403C125.64 2.66739 123.768 0.689418 120.997 0.664253ZM120.912 9.02661C119.135 8.99641 118.128 7.76332 118.133 5.62177C118.138 3.47016 119.155 2.27482 120.967 2.2874C122.754 2.29747 123.77 3.53056 123.763 5.67462C123.755 7.76835 122.658 9.05681 120.912 9.02661Z" fill="#006849"/>
<path d="M133.604 1.13925C131.677 0.550386 129.681 0.822168 127.703 0.935411V10.2943C128.305 10.5359 128.82 10.5535 129.457 10.2817V6.88947C130.602 6.88947 131.561 6.96245 132.505 6.87185C134.095 6.71835 135.152 5.8728 135.316 4.23455C135.454 2.85299 135.049 1.57964 133.604 1.13925ZM133.35 4.61958C132.374 6.01876 130.929 5.24367 129.485 5.47519C129.485 4.55918 129.477 3.86211 129.49 3.16755C129.495 2.931 129.55 2.69445 129.601 2.34214C130.892 2.43022 132.233 1.83129 133.265 2.99391C133.677 3.45695 133.713 4.09866 133.35 4.61958Z" fill="#006849"/>
<path d="M23.1651 0.998477V10.3347C22.2315 10.6644 21.6527 10.4077 21.1318 9.7056C19.7552 7.85093 18.3183 6.03653 16.6046 3.81445V10.1435C15.9704 10.5889 15.5048 10.5335 14.9336 10.302V1.08656C15.3689 0.716629 15.8169 0.839937 16.3705 0.945631C17.9257 2.94122 19.5237 4.99218 21.4161 7.41809V1.25264C22.0578 0.714112 22.5662 0.777025 23.1651 0.998477Z" fill="#F7FBFB"/>
<path d="M51.8174 0.906137V10.2877C51.3217 10.5519 50.8838 10.5016 50.31 10.3204C48.7674 8.33235 47.1644 6.26127 45.2519 3.79006V10.109C44.6831 10.5947 44.2 10.489 43.5859 10.3279V0.90362C44.0565 0.878455 44.4566 0.855807 44.9323 0.828125C46.568 2.91179 48.1987 4.99295 50.1616 7.49687V1.20308C50.758 0.672102 51.2437 0.870906 51.8174 0.906137Z" fill="#F6FBFB"/>
<path d="M8.536 4.06646C7.45138 0.905728 5.07328 0.460306 0 1.01645V10.4861C2.44605 10.3451 4.85434 10.9315 7.02861 9.53735C8.63162 8.01235 8.64672 6.05702 8.536 4.06646ZM6.30637 7.57196C5.34255 9.36874 3.53821 8.83021 1.80434 8.97114V2.4106C3.32431 2.40808 4.95249 1.96266 6.06982 3.35932C7.08649 4.63016 7.04874 6.18788 6.30637 7.57196Z" fill="#F8FCFC"/>
<path d="M120.997 0.664253C118.113 0.641604 116.226 2.64223 116.238 5.71237C116.251 8.71456 118.116 10.6347 120.997 10.612C123.828 10.5894 125.668 8.60132 125.655 5.58403C125.64 2.66739 123.768 0.689418 120.997 0.664253ZM120.912 9.02661C119.135 8.99641 118.128 7.76332 118.133 5.62177C118.138 3.47016 119.155 2.27482 120.967 2.2874C122.754 2.29747 123.77 3.53056 123.763 5.67462C123.755 7.76835 122.658 9.05681 120.912 9.02661Z" fill="#F7FCFB"/>
<path d="M81.7637 5.19642V9.76891C79.6473 11.2436 75.8952 10.8435 74.3451 8.95608C72.805 7.08128 72.9811 3.66638 74.7049 1.97277C76.4036 0.30684 79.7883 0.218762 81.6329 1.83688C81.6102 2.35276 81.4341 2.70507 81.0641 2.99699C79.2497 2.29488 77.312 1.54496 75.8499 3.46254C74.8157 4.81642 74.861 6.51507 75.8449 7.89663C76.932 9.42415 78.5728 9.16495 80.2287 8.76231V6.64089C79.5719 6.59559 78.9629 6.55533 78.3488 6.51507C77.9865 6.10236 78.0544 5.68965 78.3362 5.19642H81.7637Z" fill="#F7FCFB"/>
<path d="M114.142 1.03394V10.3022C113.525 10.5187 113.047 10.5514 112.443 10.2569V6.48973H107.543V10.1588C106.854 10.564 106.371 10.5061 105.762 10.3375V1.00878C106.278 0.716865 106.786 0.840174 107.448 0.953416V4.66527H112.383V1.11951C113.027 0.726931 113.535 0.782294 114.142 1.03394Z" fill="#F5FAFA"/>
<path d="M133.604 1.13925C131.677 0.550386 129.681 0.822168 127.703 0.935411V10.2943C128.305 10.5359 128.82 10.5535 129.457 10.2817V6.88947C130.602 6.88947 131.561 6.96245 132.505 6.87185C134.095 6.71835 135.152 5.8728 135.316 4.23455C135.454 2.85299 135.049 1.57964 133.604 1.13925ZM133.35 4.61958C132.374 6.01876 130.929 5.24367 129.485 5.47519C129.485 4.55918 129.477 3.86211 129.49 3.16755C129.495 2.931 129.55 2.69445 129.601 2.34214C130.892 2.43022 132.233 1.83129 133.265 2.99391C133.677 3.45695 133.713 4.09866 133.35 4.61958Z" fill="#F7FBFB"/>
<path d="M68.0108 0.898438H66.3826C64.9608 4.04407 63.5616 7.13938 62.1523 10.2548C62.8721 10.5442 63.3477 10.5543 63.9089 10.3102C64.2134 9.7037 64.538 9.04941 64.8349 8.45551H69.5635C69.9007 9.14 70.2077 9.7641 70.555 10.4687C71.1161 10.363 71.7025 10.743 72.236 10.1466C70.8267 7.06388 69.42 3.98619 68.0108 0.898438ZM65.7761 6.80971C65.7761 5.85596 66.2064 4.68578 67.2659 2.91919C67.8522 4.27559 68.3656 5.46338 68.9469 6.80971H65.7761Z" fill="#F6FBFB"/>
<path d="M90.4233 8.96621C90.7631 9.55004 90.7404 9.93507 90.5114 10.4057H84.2227V0.96875H90.6146C90.6372 1.35629 90.6599 1.74383 90.6901 2.28992H86.173C85.7149 3.13043 85.8961 3.8577 85.9716 4.77119H89.9804C90.519 5.31224 90.373 5.70985 90.29 6.29368H86.1226C85.7502 7.22731 85.871 7.99484 85.9817 8.96621H90.4233Z" fill="#F3FAF9"/>
<path d="M102.289 10.1126C100.235 11.0236 98.242 10.6965 96.3647 9.72007C96.2112 9.09849 96.3571 8.7034 96.7472 8.39135C101.234 9.37027 102.047 9.20166 101.886 7.28912C101.297 6.71032 100.527 6.57191 99.7217 6.53165C99.6739 6.51655 99.6286 6.50145 99.5808 6.48635C98.8636 6.26742 98.0683 6.29761 97.4442 5.79935C95.5367 3.95475 96.1457 1.62194 98.7251 0.897187C100.436 0.414018 102.004 0.690834 103.406 1.64459C103.539 2.28127 103.288 2.63358 102.877 2.98841C101.763 2.42722 100.595 2.02458 99.3065 2.38193C98.6975 2.55053 98.2193 2.84748 98.1891 3.54204C98.1589 4.26931 98.6673 4.54109 99.2763 4.69208C100.205 4.9236 101.151 5.09976 102.067 5.37909C103.104 5.69617 103.793 6.36304 103.859 7.51309C103.929 8.73611 103.361 9.6345 102.289 10.1126Z" fill="#F7FCFB"/>
<path d="M38.3083 0.891345C36.8639 4.14267 35.4848 7.24553 34.136 10.283C33.5622 10.5497 33.0765 10.5271 32.4273 10.3257C31.0885 7.33612 29.7094 4.25843 28.3203 1.16061C28.9318 0.639695 29.5081 0.911478 30.1448 0.87373C31.1589 3.19898 32.1605 5.48649 33.2904 8.07849C34.4077 5.51165 35.3917 3.24931 36.4184 0.891345H38.3083Z" fill="#F6FBFB"/>
<path d="M61.5503 2.32383C60.599 2.36913 59.5849 2.41694 58.4449 2.46979V10.1426C57.8284 10.6006 57.315 10.5226 56.6255 10.2835V2.47482C55.4805 2.42198 54.499 2.37668 53.5377 2.33138C53.193 1.88596 53.2282 1.46067 53.4522 0.929688H61.5478C61.8196 1.41034 61.8045 1.79788 61.5503 2.32383Z" fill="#F7FBFB"/>
<path d="M12.3863 0.988444V10.2442C11.8377 10.5587 11.3595 10.5084 10.7656 10.3071V1.07652C11.2035 0.688979 11.7219 0.83242 12.3863 0.988444Z" fill="#FAFDFD"/>
<path d="M41.1475 0.921875V10.2632C40.6191 10.5727 40.1007 10.5098 39.4766 10.3336V0.921875H41.1475Z" fill="#F1FAF8"/>
<path d="M99.7189 6.52918C98.8683 6.56189 98.0504 6.49646 97.4414 5.79688C98.1511 6.02588 98.8658 6.25488 99.5779 6.48388C99.6257 6.49898 99.671 6.51408 99.7189 6.52918Z" fill="#5D9C8B"/>
</svg>
